<?xml version="1.0" encoding="utf-8" standalone="no"?>
<!DOCTYPE svg PUBLIC "-//W3C//DTD SVG 1.1//EN"
  "http://www.w3.org/Graphics/SVG/1.1/DTD/svg11.dtd">
<svg xmlns:xlink="http://www.w3.org/1999/xlink" width="460.8pt" height="345.6pt" viewBox="0 0 460.8 345.6" xmlns="http://www.w3.org/2000/svg" version="1.1">
 <metadata>
  <rdf:RDF xmlns:dc="http://purl.org/dc/elements/1.1/" xmlns:cc="http://creativecommons.org/ns#" xmlns:rdf="http://www.w3.org/1999/02/22-rdf-syntax-ns#">
   <cc:Work>
    <dc:type rdf:resource="http://purl.org/dc/dcmitype/StillImage"/>
    <dc:date>2023-12-05T12:00:15.434038</dc:date>
    <dc:format>image/svg+xml</dc:format>
    <dc:creator>
     <cc:Agent>
      <dc:title>Matplotlib v3.7.2, https://matplotlib.org/</dc:title>
     </cc:Agent>
    </dc:creator>
   </cc:Work>
  </rdf:RDF>
 </metadata>
 <defs>
  <style type="text/css">*{stroke-linejoin: round; stroke-linecap: butt}</style>
 </defs>
 <g id="figure_1">
  <g id="patch_1">
   <path d="M 0 345.6 
L 460.8 345.6 
L 460.8 0 
L 0 0 
z
" style="fill: #ffffff"/>
  </g>
  <g id="axes_1">
   <g id="patch_2">
    <path d="M 57.6 307.584 
L 414.72 307.584 
L 414.72 41.472 
L 57.6 41.472 
z
" style="fill: #eaeaf2"/>
   </g>
   <g id="matplotlib.axis_1">
    <g id="xtick_1">
     <g id="line2d_1">
      <path d="M 118.12398 307.584 
L 118.12398 41.472 
" clip-path="url(#pb246749e4f)" style="fill: none; stroke: #ffffff; stroke-linecap: round"/>
     </g>
     <g id="text_1">
      <!-- 0 -->
      <g style="fill: #262626" transform="translate(115.065465 324.957594) scale(0.11 -0.11)">
       <defs>
        <path id="ArialMT-30" d="M 266 2259 
Q 266 3072 433 3567 
Q 600 4063 929 4331 
Q 1259 4600 1759 4600 
Q 2128 4600 2406 4451 
Q 2684 4303 2865 4023 
Q 3047 3744 3150 3342 
Q 3253 2941 3253 2259 
Q 3253 1453 3087 958 
Q 2922 463 2592 192 
Q 2263 -78 1759 -78 
Q 1097 -78 719 397 
Q 266 969 266 2259 
z
M 844 2259 
Q 844 1131 1108 757 
Q 1372 384 1759 384 
Q 2147 384 2411 759 
Q 2675 1134 2675 2259 
Q 2675 3391 2411 3762 
Q 2147 4134 1753 4134 
Q 1366 4134 1134 3806 
Q 844 3388 844 2259 
z
" transform="scale(0.015625)"/>
       </defs>
       <use xlink:href="#ArialMT-30"/>
      </g>
     </g>
    </g>
    <g id="xtick_2">
     <g id="line2d_2">
      <path d="M 191.896493 307.584 
L 191.896493 41.472 
" clip-path="url(#pb246749e4f)" style="fill: none; stroke: #ffffff; stroke-linecap: round"/>
     </g>
     <g id="text_2">
      <!-- 10 -->
      <g style="fill: #262626" transform="translate(185.779461 324.957594) scale(0.11 -0.11)">
       <defs>
        <path id="ArialMT-31" d="M 2384 0 
L 1822 0 
L 1822 3584 
Q 1619 3391 1289 3197 
Q 959 3003 697 2906 
L 697 3450 
Q 1169 3672 1522 3987 
Q 1875 4303 2022 4600 
L 2384 4600 
L 2384 0 
z
" transform="scale(0.015625)"/>
       </defs>
       <use xlink:href="#ArialMT-31"/>
       <use xlink:href="#ArialMT-30" x="55.615234"/>
      </g>
     </g>
    </g>
    <g id="xtick_3">
     <g id="line2d_3">
      <path d="M 265.669005 307.584 
L 265.669005 41.472 
" clip-path="url(#pb246749e4f)" style="fill: none; stroke: #ffffff; stroke-linecap: round"/>
     </g>
     <g id="text_3">
      <!-- 20 -->
      <g style="fill: #262626" transform="translate(259.551974 324.957594) scale(0.11 -0.11)">
       <defs>
        <path id="ArialMT-32" d="M 3222 541 
L 3222 0 
L 194 0 
Q 188 203 259 391 
Q 375 700 629 1000 
Q 884 1300 1366 1694 
Q 2113 2306 2375 2664 
Q 2638 3022 2638 3341 
Q 2638 3675 2398 3904 
Q 2159 4134 1775 4134 
Q 1369 4134 1125 3890 
Q 881 3647 878 3216 
L 300 3275 
Q 359 3922 746 4261 
Q 1134 4600 1788 4600 
Q 2447 4600 2831 4234 
Q 3216 3869 3216 3328 
Q 3216 3053 3103 2787 
Q 2991 2522 2730 2228 
Q 2469 1934 1863 1422 
Q 1356 997 1212 845 
Q 1069 694 975 541 
L 3222 541 
z
" transform="scale(0.015625)"/>
       </defs>
       <use xlink:href="#ArialMT-32"/>
       <use xlink:href="#ArialMT-30" x="55.615234"/>
      </g>
     </g>
    </g>
    <g id="xtick_4">
     <g id="line2d_4">
      <path d="M 339.441517 307.584 
L 339.441517 41.472 
" clip-path="url(#pb246749e4f)" style="fill: none; stroke: #ffffff; stroke-linecap: round"/>
     </g>
     <g id="text_4">
      <!-- 30 -->
      <g style="fill: #262626" transform="translate(333.324486 324.957594) scale(0.11 -0.11)">
       <defs>
        <path id="ArialMT-33" d="M 269 1209 
L 831 1284 
Q 928 806 1161 595 
Q 1394 384 1728 384 
Q 2125 384 2398 659 
Q 2672 934 2672 1341 
Q 2672 1728 2419 1979 
Q 2166 2231 1775 2231 
Q 1616 2231 1378 2169 
L 1441 2663 
Q 1497 2656 1531 2656 
Q 1891 2656 2178 2843 
Q 2466 3031 2466 3422 
Q 2466 3731 2256 3934 
Q 2047 4138 1716 4138 
Q 1388 4138 1169 3931 
Q 950 3725 888 3313 
L 325 3413 
Q 428 3978 793 4289 
Q 1159 4600 1703 4600 
Q 2078 4600 2393 4439 
Q 2709 4278 2876 4000 
Q 3044 3722 3044 3409 
Q 3044 3113 2884 2869 
Q 2725 2625 2413 2481 
Q 2819 2388 3044 2092 
Q 3269 1797 3269 1353 
Q 3269 753 2831 336 
Q 2394 -81 1725 -81 
Q 1122 -81 723 278 
Q 325 638 269 1209 
z
" transform="scale(0.015625)"/>
       </defs>
       <use xlink:href="#ArialMT-33"/>
       <use xlink:href="#ArialMT-30" x="55.615234"/>
      </g>
     </g>
    </g>
    <g id="xtick_5">
     <g id="line2d_5">
      <path d="M 413.214029 307.584 
L 413.214029 41.472 
" clip-path="url(#pb246749e4f)" style="fill: none; stroke: #ffffff; stroke-linecap: round"/>
     </g>
     <g id="text_5">
      <!-- 40 -->
      <g style="fill: #262626" transform="translate(407.096998 324.957594) scale(0.11 -0.11)">
       <defs>
        <path id="ArialMT-34" d="M 2069 0 
L 2069 1097 
L 81 1097 
L 81 1613 
L 2172 4581 
L 2631 4581 
L 2631 1613 
L 3250 1613 
L 3250 1097 
L 2631 1097 
L 2631 0 
L 2069 0 
z
M 2069 1613 
L 2069 3678 
L 634 1613 
L 2069 1613 
z
" transform="scale(0.015625)"/>
       </defs>
       <use xlink:href="#ArialMT-34"/>
       <use xlink:href="#ArialMT-30" x="55.615234"/>
      </g>
     </g>
    </g>
    <g id="text_6">
     <!-- free_bikes -->
     <g style="fill: #262626" transform="translate(208.479375 339.879469) scale(0.12 -0.12)">
      <defs>
       <path id="ArialMT-66" d="M 556 0 
L 556 2881 
L 59 2881 
L 59 3319 
L 556 3319 
L 556 3672 
Q 556 4006 616 4169 
Q 697 4388 901 4523 
Q 1106 4659 1475 4659 
Q 1713 4659 2000 4603 
L 1916 4113 
Q 1741 4144 1584 4144 
Q 1328 4144 1222 4034 
Q 1116 3925 1116 3625 
L 1116 3319 
L 1763 3319 
L 1763 2881 
L 1116 2881 
L 1116 0 
L 556 0 
z
" transform="scale(0.015625)"/>
       <path id="ArialMT-72" d="M 416 0 
L 416 3319 
L 922 3319 
L 922 2816 
Q 1116 3169 1280 3281 
Q 1444 3394 1641 3394 
Q 1925 3394 2219 3213 
L 2025 2691 
Q 1819 2813 1613 2813 
Q 1428 2813 1281 2702 
Q 1134 2591 1072 2394 
Q 978 2094 978 1738 
L 978 0 
L 416 0 
z
" transform="scale(0.015625)"/>
       <path id="ArialMT-65" d="M 2694 1069 
L 3275 997 
Q 3138 488 2766 206 
Q 2394 -75 1816 -75 
Q 1088 -75 661 373 
Q 234 822 234 1631 
Q 234 2469 665 2931 
Q 1097 3394 1784 3394 
Q 2450 3394 2872 2941 
Q 3294 2488 3294 1666 
Q 3294 1616 3291 1516 
L 816 1516 
Q 847 969 1125 678 
Q 1403 388 1819 388 
Q 2128 388 2347 550 
Q 2566 713 2694 1069 
z
M 847 1978 
L 2700 1978 
Q 2663 2397 2488 2606 
Q 2219 2931 1791 2931 
Q 1403 2931 1139 2672 
Q 875 2413 847 1978 
z
" transform="scale(0.015625)"/>
       <path id="ArialMT-5f" d="M -97 -1272 
L -97 -866 
L 3631 -866 
L 3631 -1272 
L -97 -1272 
z
" transform="scale(0.015625)"/>
       <path id="ArialMT-62" d="M 941 0 
L 419 0 
L 419 4581 
L 981 4581 
L 981 2947 
Q 1338 3394 1891 3394 
Q 2197 3394 2470 3270 
Q 2744 3147 2920 2923 
Q 3097 2700 3197 2384 
Q 3297 2069 3297 1709 
Q 3297 856 2875 390 
Q 2453 -75 1863 -75 
Q 1275 -75 941 416 
L 941 0 
z
M 934 1684 
Q 934 1088 1097 822 
Q 1363 388 1816 388 
Q 2184 388 2453 708 
Q 2722 1028 2722 1663 
Q 2722 2313 2464 2622 
Q 2206 2931 1841 2931 
Q 1472 2931 1203 2611 
Q 934 2291 934 1684 
z
" transform="scale(0.015625)"/>
       <path id="ArialMT-69" d="M 425 3934 
L 425 4581 
L 988 4581 
L 988 3934 
L 425 3934 
z
M 425 0 
L 425 3319 
L 988 3319 
L 988 0 
L 425 0 
z
" transform="scale(0.015625)"/>
       <path id="ArialMT-6b" d="M 425 0 
L 425 4581 
L 988 4581 
L 988 1969 
L 2319 3319 
L 3047 3319 
L 1778 2088 
L 3175 0 
L 2481 0 
L 1384 1697 
L 988 1316 
L 988 0 
L 425 0 
z
" transform="scale(0.015625)"/>
       <path id="ArialMT-73" d="M 197 991 
L 753 1078 
Q 800 744 1014 566 
Q 1228 388 1613 388 
Q 2000 388 2187 545 
Q 2375 703 2375 916 
Q 2375 1106 2209 1216 
Q 2094 1291 1634 1406 
Q 1016 1563 777 1677 
Q 538 1791 414 1992 
Q 291 2194 291 2438 
Q 291 2659 392 2848 
Q 494 3038 669 3163 
Q 800 3259 1026 3326 
Q 1253 3394 1513 3394 
Q 1903 3394 2198 3281 
Q 2494 3169 2634 2976 
Q 2775 2784 2828 2463 
L 2278 2388 
Q 2241 2644 2061 2787 
Q 1881 2931 1553 2931 
Q 1166 2931 1000 2803 
Q 834 2675 834 2503 
Q 834 2394 903 2306 
Q 972 2216 1119 2156 
Q 1203 2125 1616 2013 
Q 2213 1853 2448 1751 
Q 2684 1650 2818 1456 
Q 2953 1263 2953 975 
Q 2953 694 2789 445 
Q 2625 197 2315 61 
Q 2006 -75 1616 -75 
Q 969 -75 630 194 
Q 291 463 197 991 
z
" transform="scale(0.015625)"/>
      </defs>
      <use xlink:href="#ArialMT-66"/>
      <use xlink:href="#ArialMT-72" x="27.783203"/>
      <use xlink:href="#ArialMT-65" x="61.083984"/>
      <use xlink:href="#ArialMT-65" x="116.699219"/>
      <use xlink:href="#ArialMT-5f" x="172.314453"/>
      <use xlink:href="#ArialMT-62" x="227.929688"/>
      <use xlink:href="#ArialMT-69" x="283.544922"/>
      <use xlink:href="#ArialMT-6b" x="305.761719"/>
      <use xlink:href="#ArialMT-65" x="355.761719"/>
      <use xlink:href="#ArialMT-73" x="411.376953"/>
     </g>
    </g>
   </g>
   <g id="matplotlib.axis_2">
    <g id="ytick_1">
     <g id="line2d_6">
      <path d="M 57.6 307.584 
L 414.72 307.584 
" clip-path="url(#pb246749e4f)" style="fill: none; stroke: #ffffff; stroke-linecap: round"/>
     </g>
     <g id="text_7">
      <!-- 0.00 -->
      <g style="fill: #262626" transform="translate(26.692969 311.520797) scale(0.11 -0.11)">
       <defs>
        <path id="ArialMT-2e" d="M 581 0 
L 581 641 
L 1222 641 
L 1222 0 
L 581 0 
z
" transform="scale(0.015625)"/>
       </defs>
       <use xlink:href="#ArialMT-30"/>
       <use xlink:href="#ArialMT-2e" x="55.615234"/>
       <use xlink:href="#ArialMT-30" x="83.398438"/>
       <use xlink:href="#ArialMT-30" x="139.013672"/>
      </g>
     </g>
    </g>
    <g id="ytick_2">
     <g id="line2d_7">
      <path d="M 57.6 270.305962 
L 414.72 270.305962 
" clip-path="url(#pb246749e4f)" style="fill: none; stroke: #ffffff; stroke-linecap: round"/>
     </g>
     <g id="text_8">
      <!-- 0.02 -->
      <g style="fill: #262626" transform="translate(26.692969 274.242759) scale(0.11 -0.11)">
       <use xlink:href="#ArialMT-30"/>
       <use xlink:href="#ArialMT-2e" x="55.615234"/>
       <use xlink:href="#ArialMT-30" x="83.398438"/>
       <use xlink:href="#ArialMT-32" x="139.013672"/>
      </g>
     </g>
    </g>
    <g id="ytick_3">
     <g id="line2d_8">
      <path d="M 57.6 233.027924 
L 414.72 233.027924 
" clip-path="url(#pb246749e4f)" style="fill: none; stroke: #ffffff; stroke-linecap: round"/>
     </g>
     <g id="text_9">
      <!-- 0.04 -->
      <g style="fill: #262626" transform="translate(26.692969 236.964721) scale(0.11 -0.11)">
       <use xlink:href="#ArialMT-30"/>
       <use xlink:href="#ArialMT-2e" x="55.615234"/>
       <use xlink:href="#ArialMT-30" x="83.398438"/>
       <use xlink:href="#ArialMT-34" x="139.013672"/>
      </g>
     </g>
    </g>
    <g id="ytick_4">
     <g id="line2d_9">
      <path d="M 57.6 195.749886 
L 414.72 195.749886 
" clip-path="url(#pb246749e4f)" style="fill: none; stroke: #ffffff; stroke-linecap: round"/>
     </g>
     <g id="text_10">
      <!-- 0.06 -->
      <g style="fill: #262626" transform="translate(26.692969 199.686682) scale(0.11 -0.11)">
       <defs>
        <path id="ArialMT-36" d="M 3184 3459 
L 2625 3416 
Q 2550 3747 2413 3897 
Q 2184 4138 1850 4138 
Q 1581 4138 1378 3988 
Q 1113 3794 959 3422 
Q 806 3050 800 2363 
Q 1003 2672 1297 2822 
Q 1591 2972 1913 2972 
Q 2475 2972 2870 2558 
Q 3266 2144 3266 1488 
Q 3266 1056 3080 686 
Q 2894 316 2569 119 
Q 2244 -78 1831 -78 
Q 1128 -78 684 439 
Q 241 956 241 2144 
Q 241 3472 731 4075 
Q 1159 4600 1884 4600 
Q 2425 4600 2770 4297 
Q 3116 3994 3184 3459 
z
M 888 1484 
Q 888 1194 1011 928 
Q 1134 663 1356 523 
Q 1578 384 1822 384 
Q 2178 384 2434 671 
Q 2691 959 2691 1453 
Q 2691 1928 2437 2201 
Q 2184 2475 1800 2475 
Q 1419 2475 1153 2201 
Q 888 1928 888 1484 
z
" transform="scale(0.015625)"/>
       </defs>
       <use xlink:href="#ArialMT-30"/>
       <use xlink:href="#ArialMT-2e" x="55.615234"/>
       <use xlink:href="#ArialMT-30" x="83.398438"/>
       <use xlink:href="#ArialMT-36" x="139.013672"/>
      </g>
     </g>
    </g>
    <g id="ytick_5">
     <g id="line2d_10">
      <path d="M 57.6 158.471847 
L 414.72 158.471847 
" clip-path="url(#pb246749e4f)" style="fill: none; stroke: #ffffff; stroke-linecap: round"/>
     </g>
     <g id="text_11">
      <!-- 0.08 -->
      <g style="fill: #262626" transform="translate(26.692969 162.408644) scale(0.11 -0.11)">
       <defs>
        <path id="ArialMT-38" d="M 1131 2484 
Q 781 2613 612 2850 
Q 444 3088 444 3419 
Q 444 3919 803 4259 
Q 1163 4600 1759 4600 
Q 2359 4600 2725 4251 
Q 3091 3903 3091 3403 
Q 3091 3084 2923 2848 
Q 2756 2613 2416 2484 
Q 2838 2347 3058 2040 
Q 3278 1734 3278 1309 
Q 3278 722 2862 322 
Q 2447 -78 1769 -78 
Q 1091 -78 675 323 
Q 259 725 259 1325 
Q 259 1772 486 2073 
Q 713 2375 1131 2484 
z
M 1019 3438 
Q 1019 3113 1228 2906 
Q 1438 2700 1772 2700 
Q 2097 2700 2305 2904 
Q 2513 3109 2513 3406 
Q 2513 3716 2298 3927 
Q 2084 4138 1766 4138 
Q 1444 4138 1231 3931 
Q 1019 3725 1019 3438 
z
M 838 1322 
Q 838 1081 952 856 
Q 1066 631 1291 507 
Q 1516 384 1775 384 
Q 2178 384 2440 643 
Q 2703 903 2703 1303 
Q 2703 1709 2433 1975 
Q 2163 2241 1756 2241 
Q 1359 2241 1098 1978 
Q 838 1716 838 1322 
z
" transform="scale(0.015625)"/>
       </defs>
       <use xlink:href="#ArialMT-30"/>
       <use xlink:href="#ArialMT-2e" x="55.615234"/>
       <use xlink:href="#ArialMT-30" x="83.398438"/>
       <use xlink:href="#ArialMT-38" x="139.013672"/>
      </g>
     </g>
    </g>
    <g id="ytick_6">
     <g id="line2d_11">
      <path d="M 57.6 121.193809 
L 414.72 121.193809 
" clip-path="url(#pb246749e4f)" style="fill: none; stroke: #ffffff; stroke-linecap: round"/>
     </g>
     <g id="text_12">
      <!-- 0.10 -->
      <g style="fill: #262626" transform="translate(26.692969 125.130606) scale(0.11 -0.11)">
       <use xlink:href="#ArialMT-30"/>
       <use xlink:href="#ArialMT-2e" x="55.615234"/>
       <use xlink:href="#ArialMT-31" x="83.398438"/>
       <use xlink:href="#ArialMT-30" x="139.013672"/>
      </g>
     </g>
    </g>
    <g id="ytick_7">
     <g id="line2d_12">
      <path d="M 57.6 83.915771 
L 414.72 83.915771 
" clip-path="url(#pb246749e4f)" style="fill: none; stroke: #ffffff; stroke-linecap: round"/>
     </g>
     <g id="text_13">
      <!-- 0.12 -->
      <g style="fill: #262626" transform="translate(26.692969 87.852568) scale(0.11 -0.11)">
       <use xlink:href="#ArialMT-30"/>
       <use xlink:href="#ArialMT-2e" x="55.615234"/>
       <use xlink:href="#ArialMT-31" x="83.398438"/>
       <use xlink:href="#ArialMT-32" x="139.013672"/>
      </g>
     </g>
    </g>
    <g id="ytick_8">
     <g id="line2d_13">
      <path d="M 57.6 46.637733 
L 414.72 46.637733 
" clip-path="url(#pb246749e4f)" style="fill: none; stroke: #ffffff; stroke-linecap: round"/>
     </g>
     <g id="text_14">
      <!-- 0.14 -->
      <g style="fill: #262626" transform="translate(26.692969 50.57453) scale(0.11 -0.11)">
       <use xlink:href="#ArialMT-30"/>
       <use xlink:href="#ArialMT-2e" x="55.615234"/>
       <use xlink:href="#ArialMT-31" x="83.398438"/>
       <use xlink:href="#ArialMT-34" x="139.013672"/>
      </g>
     </g>
    </g>
    <g id="text_15">
     <!-- Density -->
     <g style="fill: #262626" transform="translate(20.167344 194.53425) rotate(-90) scale(0.12 -0.12)">
      <defs>
       <path id="ArialMT-44" d="M 494 0 
L 494 4581 
L 2072 4581 
Q 2606 4581 2888 4516 
Q 3281 4425 3559 4188 
Q 3922 3881 4101 3404 
Q 4281 2928 4281 2316 
Q 4281 1794 4159 1391 
Q 4038 988 3847 723 
Q 3656 459 3429 307 
Q 3203 156 2883 78 
Q 2563 0 2147 0 
L 494 0 
z
M 1100 541 
L 2078 541 
Q 2531 541 2789 625 
Q 3047 709 3200 863 
Q 3416 1078 3536 1442 
Q 3656 1806 3656 2325 
Q 3656 3044 3420 3430 
Q 3184 3816 2847 3947 
Q 2603 4041 2063 4041 
L 1100 4041 
L 1100 541 
z
" transform="scale(0.015625)"/>
       <path id="ArialMT-6e" d="M 422 0 
L 422 3319 
L 928 3319 
L 928 2847 
Q 1294 3394 1984 3394 
Q 2284 3394 2536 3286 
Q 2788 3178 2913 3003 
Q 3038 2828 3088 2588 
Q 3119 2431 3119 2041 
L 3119 0 
L 2556 0 
L 2556 2019 
Q 2556 2363 2490 2533 
Q 2425 2703 2258 2804 
Q 2091 2906 1866 2906 
Q 1506 2906 1245 2678 
Q 984 2450 984 1813 
L 984 0 
L 422 0 
z
" transform="scale(0.015625)"/>
       <path id="ArialMT-74" d="M 1650 503 
L 1731 6 
Q 1494 -44 1306 -44 
Q 1000 -44 831 53 
Q 663 150 594 308 
Q 525 466 525 972 
L 525 2881 
L 113 2881 
L 113 3319 
L 525 3319 
L 525 4141 
L 1084 4478 
L 1084 3319 
L 1650 3319 
L 1650 2881 
L 1084 2881 
L 1084 941 
Q 1084 700 1114 631 
Q 1144 563 1211 522 
Q 1278 481 1403 481 
Q 1497 481 1650 503 
z
" transform="scale(0.015625)"/>
       <path id="ArialMT-79" d="M 397 -1278 
L 334 -750 
Q 519 -800 656 -800 
Q 844 -800 956 -737 
Q 1069 -675 1141 -563 
Q 1194 -478 1313 -144 
Q 1328 -97 1363 -6 
L 103 3319 
L 709 3319 
L 1400 1397 
Q 1534 1031 1641 628 
Q 1738 1016 1872 1384 
L 2581 3319 
L 3144 3319 
L 1881 -56 
Q 1678 -603 1566 -809 
Q 1416 -1088 1222 -1217 
Q 1028 -1347 759 -1347 
Q 597 -1347 397 -1278 
z
" transform="scale(0.015625)"/>
      </defs>
      <use xlink:href="#ArialMT-44"/>
      <use xlink:href="#ArialMT-65" x="72.216797"/>
      <use xlink:href="#ArialMT-6e" x="127.832031"/>
      <use xlink:href="#ArialMT-73" x="183.447266"/>
      <use xlink:href="#ArialMT-69" x="233.447266"/>
      <use xlink:href="#ArialMT-74" x="255.664062"/>
      <use xlink:href="#ArialMT-79" x="283.447266"/>
     </g>
    </g>
   </g>
   <g id="PolyCollection_1">
    <defs>
     <path id="mf8af5f27e4" d="M 88.840351 -38.355985 
L 88.840351 -38.016 
L 89.950234 -38.016 
L 91.060118 -38.016 
L 92.170001 -38.016 
L 93.279884 -38.016 
L 94.389768 -38.016 
L 95.499651 -38.016 
L 96.609534 -38.016 
L 97.719418 -38.016 
L 98.829301 -38.016 
L 99.939184 -38.016 
L 101.049068 -38.016 
L 102.158951 -38.016 
L 103.268834 -38.016 
L 104.378718 -38.016 
L 105.488601 -38.016 
L 106.598484 -38.016 
L 107.708368 -38.016 
L 108.818251 -38.016 
L 109.928134 -38.016 
L 111.038018 -38.016 
L 112.147901 -38.016 
L 113.257784 -38.016 
L 114.367668 -38.016 
L 115.477551 -38.016 
L 116.587435 -38.016 
L 117.697318 -38.016 
L 118.807201 -38.016 
L 119.917085 -38.016 
L 121.026968 -38.016 
L 122.136851 -38.016 
L 123.246735 -38.016 
L 124.356618 -38.016 
L 125.466501 -38.016 
L 126.576385 -38.016 
L 127.686268 -38.016 
L 128.796151 -38.016 
L 129.906035 -38.016 
L 131.015918 -38.016 
L 132.125801 -38.016 
L 133.235685 -38.016 
L 134.345568 -38.016 
L 135.455451 -38.016 
L 136.565335 -38.016 
L 137.675218 -38.016 
L 138.785101 -38.016 
L 139.894985 -38.016 
L 141.004868 -38.016 
L 142.114752 -38.016 
L 143.224635 -38.016 
L 144.334518 -38.016 
L 145.444402 -38.016 
L 146.554285 -38.016 
L 147.664168 -38.016 
L 148.774052 -38.016 
L 149.883935 -38.016 
L 150.993818 -38.016 
L 152.103702 -38.016 
L 153.213585 -38.016 
L 154.323468 -38.016 
L 155.433352 -38.016 
L 156.543235 -38.016 
L 157.653118 -38.016 
L 158.763002 -38.016 
L 159.872885 -38.016 
L 160.982768 -38.016 
L 162.092652 -38.016 
L 163.202535 -38.016 
L 164.312418 -38.016 
L 165.422302 -38.016 
L 166.532185 -38.016 
L 167.642068 -38.016 
L 168.751952 -38.016 
L 169.861835 -38.016 
L 170.971719 -38.016 
L 172.081602 -38.016 
L 173.191485 -38.016 
L 174.301369 -38.016 
L 175.411252 -38.016 
L 176.521135 -38.016 
L 177.631019 -38.016 
L 178.740902 -38.016 
L 179.850785 -38.016 
L 180.960669 -38.016 
L 182.070552 -38.016 
L 183.180435 -38.016 
L 184.290319 -38.016 
L 185.400202 -38.016 
L 186.510085 -38.016 
L 187.619969 -38.016 
L 188.729852 -38.016 
L 189.839735 -38.016 
L 190.949619 -38.016 
L 192.059502 -38.016 
L 193.169385 -38.016 
L 194.279269 -38.016 
L 195.389152 -38.016 
L 196.499036 -38.016 
L 197.608919 -38.016 
L 198.718802 -38.016 
L 199.828686 -38.016 
L 200.938569 -38.016 
L 202.048452 -38.016 
L 203.158336 -38.016 
L 204.268219 -38.016 
L 205.378102 -38.016 
L 206.487986 -38.016 
L 207.597869 -38.016 
L 208.707752 -38.016 
L 209.817636 -38.016 
L 210.927519 -38.016 
L 212.037402 -38.016 
L 213.147286 -38.016 
L 214.257169 -38.016 
L 215.367052 -38.016 
L 216.476936 -38.016 
L 217.586819 -38.016 
L 218.696702 -38.016 
L 219.806586 -38.016 
L 220.916469 -38.016 
L 222.026352 -38.016 
L 223.136236 -38.016 
L 224.246119 -38.016 
L 225.356003 -38.016 
L 226.465886 -38.016 
L 227.575769 -38.016 
L 228.685653 -38.016 
L 229.795536 -38.016 
L 230.905419 -38.016 
L 232.015303 -38.016 
L 233.125186 -38.016 
L 234.235069 -38.016 
L 235.344953 -38.016 
L 236.454836 -38.016 
L 237.564719 -38.016 
L 238.674603 -38.016 
L 239.784486 -38.016 
L 240.894369 -38.016 
L 242.004253 -38.016 
L 243.114136 -38.016 
L 244.224019 -38.016 
L 245.333903 -38.016 
L 246.443786 -38.016 
L 247.553669 -38.016 
L 248.663553 -38.016 
L 249.773436 -38.016 
L 250.883319 -38.016 
L 251.993203 -38.016 
L 253.103086 -38.016 
L 254.21297 -38.016 
L 255.322853 -38.016 
L 256.432736 -38.016 
L 257.54262 -38.016 
L 258.652503 -38.016 
L 259.762386 -38.016 
L 260.87227 -38.016 
L 261.982153 -38.016 
L 263.092036 -38.016 
L 264.20192 -38.016 
L 265.311803 -38.016 
L 266.421686 -38.016 
L 267.53157 -38.016 
L 268.641453 -38.016 
L 269.751336 -38.016 
L 270.86122 -38.016 
L 271.971103 -38.016 
L 273.080986 -38.016 
L 274.19087 -38.016 
L 275.300753 -38.016 
L 276.410636 -38.016 
L 277.52052 -38.016 
L 278.630403 -38.016 
L 279.740287 -38.016 
L 280.85017 -38.016 
L 281.960053 -38.016 
L 283.069937 -38.016 
L 284.17982 -38.016 
L 285.289703 -38.016 
L 286.399587 -38.016 
L 287.50947 -38.016 
L 288.619353 -38.016 
L 289.729237 -38.016 
L 290.83912 -38.016 
L 291.949003 -38.016 
L 293.058887 -38.016 
L 294.16877 -38.016 
L 295.278653 -38.016 
L 296.388537 -38.016 
L 297.49842 -38.016 
L 298.608303 -38.016 
L 299.718187 -38.016 
L 300.82807 -38.016 
L 301.937953 -38.016 
L 303.047837 -38.016 
L 304.15772 -38.016 
L 305.267603 -38.016 
L 306.377487 -38.016 
L 307.48737 -38.016 
L 308.597254 -38.016 
L 309.707137 -38.016 
L 309.707137 -38.062408 
L 309.707137 -38.062408 
L 308.597254 -38.081273 
L 307.48737 -38.106675 
L 306.377487 -38.140417 
L 305.267603 -38.184626 
L 304.15772 -38.241755 
L 303.047837 -38.314568 
L 301.937953 -38.406087 
L 300.82807 -38.519518 
L 299.718187 -38.658133 
L 298.608303 -38.825128 
L 297.49842 -39.023431 
L 296.388537 -39.255495 
L 295.278653 -39.523063 
L 294.16877 -39.826928 
L 293.058887 -40.166706 
L 291.949003 -40.540627 
L 290.83912 -40.945384 
L 289.729237 -41.376042 
L 288.619353 -41.826029 
L 287.50947 -42.287221 
L 286.399587 -42.750133 
L 285.289703 -43.204203 
L 284.17982 -43.63817 
L 283.069937 -44.040527 
L 281.960053 -44.400024 
L 280.85017 -44.706194 
L 279.740287 -44.949873 
L 278.630403 -45.123672 
L 277.52052 -45.222385 
L 276.410636 -45.24329 
L 275.300753 -45.186335 
L 274.19087 -45.054191 
L 273.080986 -44.852172 
L 271.971103 -44.588019 
L 270.86122 -44.27158 
L 269.751336 -43.914381 
L 268.641453 -43.529136 
L 267.53157 -43.129211 
L 266.421686 -42.728075 
L 265.311803 -42.338764 
L 264.20192 -41.973382 
L 263.092036 -41.642652 
L 261.982153 -41.355546 
L 260.87227 -41.118988 
L 259.762386 -40.937642 
L 258.652503 -40.813797 
L 257.54262 -40.74733 
L 256.432736 -40.735773 
L 255.322853 -40.774453 
L 254.21297 -40.856733 
L 253.103086 -40.974323 
L 251.993203 -41.117675 
L 250.883319 -41.276438 
L 249.773436 -41.439965 
L 248.663553 -41.597853 
L 247.553669 -41.740484 
L 246.443786 -41.859555 
L 245.333903 -41.948554 
L 244.224019 -42.003156 
L 243.114136 -42.021527 
L 242.004253 -42.004492 
L 240.894369 -41.955582 
L 239.784486 -41.880937 
L 238.674603 -41.789068 
L 237.564719 -41.690512 
L 236.454836 -41.597376 
L 235.344953 -41.522813 
L 234.235069 -41.480441 
L 233.125186 -41.483758 
L 232.015303 -41.545564 
L 230.905419 -41.677424 
L 229.795536 -41.889201 
L 228.685653 -42.188683 
L 227.575769 -42.581322 
L 226.465886 -43.070096 
L 225.356003 -43.655517 
L 224.246119 -44.335783 
L 223.136236 -45.107063 
L 222.026352 -45.963914 
L 220.916469 -46.8998 
L 219.806586 -47.907671 
L 218.696702 -48.980578 
L 217.586819 -50.112247 
L 216.476936 -51.297583 
L 215.367052 -52.533033 
L 214.257169 -53.816787 
L 213.147286 -55.148772 
L 212.037402 -56.53043 
L 210.927519 -57.964314 
L 209.817636 -59.453504 
L 208.707752 -61.000924 
L 207.597869 -62.60862 
L 206.487986 -64.277079 
L 205.378102 -66.004674 
L 204.268219 -67.787318 
L 203.158336 -69.618381 
L 202.048452 -71.48891 
L 200.938569 -73.388181 
L 199.828686 -75.304557 
L 198.718802 -77.226608 
L 197.608919 -79.14444 
L 196.499036 -81.051115 
L 195.389152 -82.944084 
L 194.279269 -84.826489 
L 193.169385 -86.708234 
L 192.059502 -88.60671 
L 190.949619 -90.54709 
L 189.839735 -92.562113 
L 188.729852 -94.691333 
L 187.619969 -96.979828 
L 186.510085 -99.476396 
L 185.400202 -102.231329 
L 184.290319 -105.293857 
L 183.180435 -108.709422 
L 182.070552 -112.516927 
L 180.960669 -116.746168 
L 179.850785 -121.415598 
L 178.740902 -126.530638 
L 177.631019 -132.082638 
L 176.521135 -138.048641 
L 175.411252 -144.391984 
L 174.301369 -151.063749 
L 173.191485 -158.005006 
L 172.081602 -165.149712 
L 170.971719 -172.42809 
L 169.861835 -179.770234 
L 168.751952 -187.109696 
L 167.642068 -194.386731 
L 166.532185 -201.550964 
L 165.422302 -208.563194 
L 164.312418 -215.396186 
L 163.202535 -222.034317 
L 162.092652 -228.472078 
L 160.982768 -234.711522 
L 159.872885 -240.758833 
L 158.763002 -246.62032 
L 157.653118 -252.298168 
L 156.543235 -257.786346 
L 155.433352 -263.067078 
L 154.323468 -268.108225 
L 153.213585 -272.861914 
L 152.103702 -277.264594 
L 150.993818 -281.238616 
L 149.883935 -284.695293 
L 148.774052 -287.539241 
L 147.664168 -289.673714 
L 146.554285 -291.006513 
L 145.444402 -291.456 
L 144.334518 -290.956733 
L 143.224635 -289.464245 
L 142.114752 -286.958567 
L 141.004868 -283.44619 
L 139.894985 -278.96031 
L 138.785101 -273.559328 
L 137.675218 -267.323748 
L 136.565335 -260.351747 
L 135.455451 -252.75379 
L 134.345568 -244.646755 
L 133.235685 -236.148052 
L 132.125801 -227.370199 
L 131.015918 -218.416254 
L 129.906035 -209.376423 
L 128.796151 -200.326001 
L 127.686268 -191.324721 
L 126.576385 -182.417406 
L 125.466501 -173.635739 
L 124.356618 -165.000864 
L 123.246735 -156.52648 
L 122.136851 -148.222082 
L 121.026968 -140.096003 
L 119.917085 -132.157995 
L 118.807201 -124.421128 
L 117.697318 -116.902886 
L 116.587435 -109.625441 
L 115.477551 -102.61514 
L 114.367668 -95.90135 
L 113.257784 -89.514816 
L 112.147901 -83.485749 
L 111.038018 -77.84185 
L 109.928134 -72.606468 
L 108.818251 -67.797046 
L 107.708368 -63.423994 
L 106.598484 -59.490035 
L 105.488601 -55.99007 
L 104.378718 -52.911509 
L 103.268834 -50.235021 
L 102.158951 -47.9356 
L 101.049068 -45.98385 
L 99.939184 -44.347362 
L 98.829301 -42.992093 
L 97.719418 -41.883653 
L 96.609534 -40.988434 
L 95.499651 -40.274528 
L 94.389768 -39.712426 
L 93.279884 -39.275482 
L 92.170001 -38.940171 
L 91.060118 -38.686155 
L 89.950234 -38.4962 
L 88.840351 -38.355985 
z
" style="stroke: #0173b2"/>
    </defs>
    <g clip-path="url(#pb246749e4f)">
     <use xlink:href="#mf8af5f27e4" x="0" y="345.6" style="fill: #0173b2; fill-opacity: 0.25; stroke: #0173b2"/>
    </g>
   </g>
   <g id="PolyCollection_2">
    <defs>
     <path id="mff82aa51e6" d="M 73.832727 -38.339305 
L 73.832727 -38.016 
L 75.464157 -38.016 
L 77.095587 -38.016 
L 78.727017 -38.016 
L 80.358447 -38.016 
L 81.989877 -38.016 
L 83.621307 -38.016 
L 85.252736 -38.016 
L 86.884166 -38.016 
L 88.515596 -38.016 
L 90.147026 -38.016 
L 91.778456 -38.016 
L 93.409886 -38.016 
L 95.041316 -38.016 
L 96.672746 -38.016 
L 98.304175 -38.016 
L 99.935605 -38.016 
L 101.567035 -38.016 
L 103.198465 -38.016 
L 104.829895 -38.016 
L 106.461325 -38.016 
L 108.092755 -38.016 
L 109.724185 -38.016 
L 111.355614 -38.016 
L 112.987044 -38.016 
L 114.618474 -38.016 
L 116.249904 -38.016 
L 117.881334 -38.016 
L 119.512764 -38.016 
L 121.144194 -38.016 
L 122.775624 -38.016 
L 124.407053 -38.016 
L 126.038483 -38.016 
L 127.669913 -38.016 
L 129.301343 -38.016 
L 130.932773 -38.016 
L 132.564203 -38.016 
L 134.195633 -38.016 
L 135.827063 -38.016 
L 137.458492 -38.016 
L 139.089922 -38.016 
L 140.721352 -38.016 
L 142.352782 -38.016 
L 143.984212 -38.016 
L 145.615642 -38.016 
L 147.247072 -38.016 
L 148.878502 -38.016 
L 150.509931 -38.016 
L 152.141361 -38.016 
L 153.772791 -38.016 
L 155.404221 -38.016 
L 157.035651 -38.016 
L 158.667081 -38.016 
L 160.298511 -38.016 
L 161.929941 -38.016 
L 163.56137 -38.016 
L 165.1928 -38.016 
L 166.82423 -38.016 
L 168.45566 -38.016 
L 170.08709 -38.016 
L 171.71852 -38.016 
L 173.34995 -38.016 
L 174.98138 -38.016 
L 176.61281 -38.016 
L 178.244239 -38.016 
L 179.875669 -38.016 
L 181.507099 -38.016 
L 183.138529 -38.016 
L 184.769959 -38.016 
L 186.401389 -38.016 
L 188.032819 -38.016 
L 189.664249 -38.016 
L 191.295678 -38.016 
L 192.927108 -38.016 
L 194.558538 -38.016 
L 196.189968 -38.016 
L 197.821398 -38.016 
L 199.452828 -38.016 
L 201.084258 -38.016 
L 202.715688 -38.016 
L 204.347117 -38.016 
L 205.978547 -38.016 
L 207.609977 -38.016 
L 209.241407 -38.016 
L 210.872837 -38.016 
L 212.504267 -38.016 
L 214.135697 -38.016 
L 215.767127 -38.016 
L 217.398556 -38.016 
L 219.029986 -38.016 
L 220.661416 -38.016 
L 222.292846 -38.016 
L 223.924276 -38.016 
L 225.555706 -38.016 
L 227.187136 -38.016 
L 228.818566 -38.016 
L 230.449995 -38.016 
L 232.081425 -38.016 
L 233.712855 -38.016 
L 235.344285 -38.016 
L 236.975715 -38.016 
L 238.607145 -38.016 
L 240.238575 -38.016 
L 241.870005 -38.016 
L 243.501434 -38.016 
L 245.132864 -38.016 
L 246.764294 -38.016 
L 248.395724 -38.016 
L 250.027154 -38.016 
L 251.658584 -38.016 
L 253.290014 -38.016 
L 254.921444 -38.016 
L 256.552873 -38.016 
L 258.184303 -38.016 
L 259.815733 -38.016 
L 261.447163 -38.016 
L 263.078593 -38.016 
L 264.710023 -38.016 
L 266.341453 -38.016 
L 267.972883 -38.016 
L 269.604312 -38.016 
L 271.235742 -38.016 
L 272.867172 -38.016 
L 274.498602 -38.016 
L 276.130032 -38.016 
L 277.761462 -38.016 
L 279.392892 -38.016 
L 281.024322 -38.016 
L 282.655751 -38.016 
L 284.287181 -38.016 
L 285.918611 -38.016 
L 287.550041 -38.016 
L 289.181471 -38.016 
L 290.812901 -38.016 
L 292.444331 -38.016 
L 294.075761 -38.016 
L 295.70719 -38.016 
L 297.33862 -38.016 
L 298.97005 -38.016 
L 300.60148 -38.016 
L 302.23291 -38.016 
L 303.86434 -38.016 
L 305.49577 -38.016 
L 307.1272 -38.016 
L 308.75863 -38.016 
L 310.390059 -38.016 
L 312.021489 -38.016 
L 313.652919 -38.016 
L 315.284349 -38.016 
L 316.915779 -38.016 
L 318.547209 -38.016 
L 320.178639 -38.016 
L 321.810069 -38.016 
L 323.441498 -38.016 
L 325.072928 -38.016 
L 326.704358 -38.016 
L 328.335788 -38.016 
L 329.967218 -38.016 
L 331.598648 -38.016 
L 333.230078 -38.016 
L 334.861508 -38.016 
L 336.492937 -38.016 
L 338.124367 -38.016 
L 339.755797 -38.016 
L 341.387227 -38.016 
L 343.018657 -38.016 
L 344.650087 -38.016 
L 346.281517 -38.016 
L 347.912947 -38.016 
L 349.544376 -38.016 
L 351.175806 -38.016 
L 352.807236 -38.016 
L 354.438666 -38.016 
L 356.070096 -38.016 
L 357.701526 -38.016 
L 359.332956 -38.016 
L 360.964386 -38.016 
L 362.595815 -38.016 
L 364.227245 -38.016 
L 365.858675 -38.016 
L 367.490105 -38.016 
L 369.121535 -38.016 
L 370.752965 -38.016 
L 372.384395 -38.016 
L 374.015825 -38.016 
L 375.647254 -38.016 
L 377.278684 -38.016 
L 378.910114 -38.016 
L 380.541544 -38.016 
L 382.172974 -38.016 
L 383.804404 -38.016 
L 385.435834 -38.016 
L 387.067264 -38.016 
L 388.698693 -38.016 
L 390.330123 -38.016 
L 391.961553 -38.016 
L 393.592983 -38.016 
L 395.224413 -38.016 
L 396.855843 -38.016 
L 398.487273 -38.016 
L 398.487273 -38.050078 
L 398.487273 -38.050078 
L 396.855843 -38.063626 
L 395.224413 -38.081779 
L 393.592983 -38.10579 
L 391.961553 -38.137134 
L 390.330123 -38.177516 
L 388.698693 -38.228851 
L 387.067264 -38.293241 
L 385.435834 -38.372917 
L 383.804404 -38.470164 
L 382.172974 -38.587217 
L 380.541544 -38.726132 
L 378.910114 -38.888638 
L 377.278684 -39.075971 
L 375.647254 -39.288699 
L 374.015825 -39.526556 
L 372.384395 -39.788292 
L 370.752965 -40.071556 
L 369.121535 -40.372828 
L 367.490105 -40.687413 
L 365.858675 -41.009504 
L 364.227245 -41.332331 
L 362.595815 -41.64838 
L 360.964386 -41.949689 
L 359.332956 -42.228208 
L 357.701526 -42.4762 
L 356.070096 -42.68665 
L 354.438666 -42.853684 
L 352.807236 -42.972932 
L 351.175806 -43.041842 
L 349.544376 -43.059892 
L 347.912947 -43.028709 
L 346.281517 -42.952056 
L 344.650087 -42.835713 
L 343.018657 -42.687229 
L 341.387227 -42.515585 
L 339.755797 -42.330759 
L 338.124367 -42.143249 
L 336.492937 -41.963556 
L 334.861508 -41.801669 
L 333.230078 -41.666579 
L 331.598648 -41.565843 
L 329.967218 -41.50523 
L 328.335788 -41.48846 
L 326.704358 -41.517042 
L 325.072928 -41.590242 
L 323.441498 -41.705155 
L 321.810069 -41.856895 
L 320.178639 -42.038882 
L 318.547209 -42.243221 
L 316.915779 -42.461147 
L 315.284349 -42.6835 
L 313.652919 -42.90123 
L 312.021489 -43.10587 
L 310.390059 -43.289975 
L 308.75863 -43.447484 
L 307.1272 -43.573989 
L 305.49577 -43.666905 
L 303.86434 -43.725514 
L 302.23291 -43.750911 
L 300.60148 -43.745842 
L 298.97005 -43.714465 
L 297.33862 -43.662063 
L 295.70719 -43.594715 
L 294.075761 -43.518986 
L 292.444331 -43.441628 
L 290.812901 -43.369334 
L 289.181471 -43.308545 
L 287.550041 -43.265309 
L 285.918611 -43.245194 
L 284.287181 -43.25324 
L 282.655751 -43.293924 
L 281.024322 -43.371123 
L 279.392892 -43.488071 
L 277.761462 -43.647275 
L 276.130032 -43.85041 
L 274.498602 -44.098187 
L 272.867172 -44.390211 
L 271.235742 -44.724856 
L 269.604312 -45.099179 
L 267.972883 -45.508909 
L 266.341453 -45.948526 
L 264.710023 -46.411459 
L 263.078593 -46.890395 
L 261.447163 -47.377712 
L 259.815733 -47.865991 
L 258.184303 -48.348593 
L 256.552873 -48.820242 
L 254.921444 -49.277573 
L 253.290014 -49.719583 
L 251.658584 -50.147935 
L 250.027154 -50.56709 
L 248.395724 -50.984224 
L 246.764294 -51.40893 
L 245.132864 -51.852726 
L 243.501434 -52.328386 
L 241.870005 -52.849161 
L 240.238575 -53.427937 
L 238.607145 -54.076422 
L 236.975715 -54.804417 
L 235.344285 -55.619257 
L 233.712855 -56.525468 
L 232.081425 -57.5247 
L 230.449995 -58.615936 
L 228.818566 -59.795999 
L 227.187136 -61.060322 
L 225.555706 -62.40393 
L 223.924276 -63.82259 
L 222.292846 -65.314028 
L 220.661416 -66.879136 
L 219.029986 -68.523078 
L 217.398556 -70.256203 
L 215.767127 -72.094688 
L 214.135697 -74.060839 
L 212.504267 -76.183017 
L 210.872837 -78.495144 
L 209.241407 -81.035797 
L 207.609977 -83.846915 
L 205.978547 -86.972144 
L 204.347117 -90.454906 
L 202.715688 -94.33625 
L 201.084258 -98.65259 
L 199.452828 -103.433418 
L 197.821398 -108.699095 
L 196.189968 -114.45882 
L 194.558538 -120.70885 
L 192.927108 -127.431065 
L 191.295678 -134.591949 
L 189.664249 -142.142022 
L 188.032819 -150.015798 
L 186.401389 -158.132279 
L 184.769959 -166.396025 
L 183.138529 -174.698803 
L 181.507099 -182.921804 
L 179.875669 -190.938415 
L 178.244239 -198.617472 
L 176.61281 -205.826942 
L 174.98138 -212.437898 
L 173.34995 -218.32865 
L 171.71852 -223.388871 
L 170.08709 -227.523517 
L 168.45566 -230.656341 
L 166.82423 -232.732819 
L 165.1928 -233.722299 
L 163.56137 -233.619257 
L 161.929941 -232.443551 
L 160.298511 -230.239653 
L 158.667081 -227.074895 
L 157.035651 -223.036794 
L 155.404221 -218.229618 
L 153.772791 -212.770349 
L 152.141361 -206.784258 
L 150.509931 -200.400296 
L 148.878502 -193.746516 
L 147.247072 -186.945723 
L 145.615642 -180.111519 
L 143.984212 -173.34491 
L 142.352782 -166.731574 
L 140.721352 -160.339893 
L 139.089922 -154.219805 
L 137.458492 -148.402505 
L 135.827063 -142.900982 
L 134.195633 -137.711366 
L 132.564203 -132.815006 
L 130.932773 -128.181161 
L 129.301343 -123.770176 
L 127.669913 -119.536959 
L 126.038483 -115.434558 
L 124.407053 -111.417642 
L 122.775624 -107.445675 
L 121.144194 -103.485586 
L 119.512764 -99.513793 
L 117.881334 -95.517464 
L 116.249904 -91.494965 
L 114.618474 -87.455499 
L 112.987044 -83.418008 
L 111.355614 -79.409454 
L 109.724185 -75.462655 
L 108.092755 -71.613843 
L 106.461325 -67.900166 
L 104.829895 -64.357305 
L 103.198465 -61.017373 
L 101.567035 -57.907228 
L 99.935605 -55.047273 
L 98.304175 -52.450781 
L 96.672746 -50.123728 
L 95.041316 -48.065092 
L 93.409886 -46.267523 
L 91.778456 -44.718302 
L 90.147026 -43.400469 
L 88.515596 -42.294023 
L 86.884166 -41.377109 
L 85.252736 -40.6271 
L 83.621307 -40.021544 
L 81.989877 -39.538925 
L 80.358447 -39.159234 
L 78.727017 -38.864356 
L 77.095587 -38.638278 
L 75.464157 -38.467165 
L 73.832727 -38.339305 
z
" style="stroke: #de8f05"/>
    </defs>
    <g clip-path="url(#pb246749e4f)">
     <use xlink:href="#mff82aa51e6" x="0" y="345.6" style="fill: #de8f05; fill-opacity: 0.25; stroke: #de8f05"/>
    </g>
   </g>
   <g id="patch_3">
    <path d="M 57.6 307.584 
L 57.6 41.472 
" style="fill: none; stroke: #ffffff; stroke-width: 1.25; stroke-linejoin: miter; stroke-linecap: square"/>
   </g>
   <g id="patch_4">
    <path d="M 414.72 307.584 
L 414.72 41.472 
" style="fill: none; stroke: #ffffff; stroke-width: 1.25; stroke-linejoin: miter; stroke-linecap: square"/>
   </g>
   <g id="patch_5">
    <path d="M 57.6 307.584 
L 414.72 307.584 
" style="fill: none; stroke: #ffffff; stroke-width: 1.25; stroke-linejoin: miter; stroke-linecap: square"/>
   </g>
   <g id="patch_6">
    <path d="M 57.6 41.472 
L 414.72 41.472 
" style="fill: none; stroke: #ffffff; stroke-width: 1.25; stroke-linejoin: miter; stroke-linecap: square"/>
   </g>
  </g>
 </g>
 <defs>
  <clipPath id="pb246749e4f">
   <rect x="57.6" y="41.472" width="357.12" height="266.112"/>
  </clipPath>
 </defs>
</svg>
