<?xml version="1.0" encoding="utf-8" standalone="no"?>
<!DOCTYPE svg PUBLIC "-//W3C//DTD SVG 1.1//EN"
  "http://www.w3.org/Graphics/SVG/1.1/DTD/svg11.dtd">
<svg xmlns:xlink="http://www.w3.org/1999/xlink" width="1008pt" height="360pt" viewBox="0 0 1008 360" xmlns="http://www.w3.org/2000/svg" version="1.1">
 <metadata>
  <rdf:RDF xmlns:dc="http://purl.org/dc/elements/1.1/" xmlns:cc="http://creativecommons.org/ns#" xmlns:rdf="http://www.w3.org/1999/02/22-rdf-syntax-ns#">
   <cc:Work>
    <dc:type rdf:resource="http://purl.org/dc/dcmitype/StillImage"/>
    <dc:date>2023-12-05T12:00:50.937740</dc:date>
    <dc:format>image/svg+xml</dc:format>
    <dc:creator>
     <cc:Agent>
      <dc:title>Matplotlib v3.7.2, https://matplotlib.org/</dc:title>
     </cc:Agent>
    </dc:creator>
   </cc:Work>
  </rdf:RDF>
 </metadata>
 <defs>
  <style type="text/css">*{stroke-linejoin: round; stroke-linecap: butt}</style>
 </defs>
 <g id="figure_1">
  <g id="patch_1">
   <path d="M 0 360 
L 1008 360 
L 1008 0 
L 0 0 
z
" style="fill: #ffffff"/>
  </g>
  <g id="axes_1">
   <g id="patch_2">
    <path d="M 49.5 137.030625 
L 329.13 137.030625 
L 329.13 12.96 
L 49.5 12.96 
z
" style="fill: #eaeaf2"/>
   </g>
   <g id="matplotlib.axis_1">
    <g id="xtick_1">
     <g id="line2d_1">
      <path d="M 62.210455 137.030625 
L 62.210455 12.96 
" clip-path="url(#pcf18fd9b37)" style="fill: none; stroke: #ffffff; stroke-linecap: round"/>
     </g>
     <g id="text_1">
      <!-- 0 -->
      <g style="fill: #262626" transform="translate(59.151939 154.404219) scale(0.11 -0.11)">
       <defs>
        <path id="ArialMT-30" d="M 266 2259 
Q 266 3072 433 3567 
Q 600 4063 929 4331 
Q 1259 4600 1759 4600 
Q 2128 4600 2406 4451 
Q 2684 4303 2865 4023 
Q 3047 3744 3150 3342 
Q 3253 2941 3253 2259 
Q 3253 1453 3087 958 
Q 2922 463 2592 192 
Q 2263 -78 1759 -78 
Q 1097 -78 719 397 
Q 266 969 266 2259 
z
M 844 2259 
Q 844 1131 1108 757 
Q 1372 384 1759 384 
Q 2147 384 2411 759 
Q 2675 1134 2675 2259 
Q 2675 3391 2411 3762 
Q 2147 4134 1753 4134 
Q 1366 4134 1134 3806 
Q 844 3388 844 2259 
z
" transform="scale(0.015625)"/>
       </defs>
       <use xlink:href="#ArialMT-30"/>
      </g>
     </g>
    </g>
    <g id="xtick_2">
     <g id="line2d_2">
      <path d="M 101.930625 137.030625 
L 101.930625 12.96 
" clip-path="url(#pcf18fd9b37)" style="fill: none; stroke: #ffffff; stroke-linecap: round"/>
     </g>
     <g id="text_2">
      <!-- 5 -->
      <g style="fill: #262626" transform="translate(98.872109 154.404219) scale(0.11 -0.11)">
       <defs>
        <path id="ArialMT-35" d="M 266 1200 
L 856 1250 
Q 922 819 1161 601 
Q 1400 384 1738 384 
Q 2144 384 2425 690 
Q 2706 997 2706 1503 
Q 2706 1984 2436 2262 
Q 2166 2541 1728 2541 
Q 1456 2541 1237 2417 
Q 1019 2294 894 2097 
L 366 2166 
L 809 4519 
L 3088 4519 
L 3088 3981 
L 1259 3981 
L 1013 2750 
Q 1425 3038 1878 3038 
Q 2478 3038 2890 2622 
Q 3303 2206 3303 1553 
Q 3303 931 2941 478 
Q 2500 -78 1738 -78 
Q 1113 -78 717 272 
Q 322 622 266 1200 
z
" transform="scale(0.015625)"/>
       </defs>
       <use xlink:href="#ArialMT-35"/>
      </g>
     </g>
    </g>
    <g id="xtick_3">
     <g id="line2d_3">
      <path d="M 141.650795 137.030625 
L 141.650795 12.96 
" clip-path="url(#pcf18fd9b37)" style="fill: none; stroke: #ffffff; stroke-linecap: round"/>
     </g>
     <g id="text_3">
      <!-- 10 -->
      <g style="fill: #262626" transform="translate(135.533764 154.404219) scale(0.11 -0.11)">
       <defs>
        <path id="ArialMT-31" d="M 2384 0 
L 1822 0 
L 1822 3584 
Q 1619 3391 1289 3197 
Q 959 3003 697 2906 
L 697 3450 
Q 1169 3672 1522 3987 
Q 1875 4303 2022 4600 
L 2384 4600 
L 2384 0 
z
" transform="scale(0.015625)"/>
       </defs>
       <use xlink:href="#ArialMT-31"/>
       <use xlink:href="#ArialMT-30" x="55.615234"/>
      </g>
     </g>
    </g>
    <g id="xtick_4">
     <g id="line2d_4">
      <path d="M 181.370966 137.030625 
L 181.370966 12.96 
" clip-path="url(#pcf18fd9b37)" style="fill: none; stroke: #ffffff; stroke-linecap: round"/>
     </g>
     <g id="text_4">
      <!-- 15 -->
      <g style="fill: #262626" transform="translate(175.253935 154.404219) scale(0.11 -0.11)">
       <use xlink:href="#ArialMT-31"/>
       <use xlink:href="#ArialMT-35" x="55.615234"/>
      </g>
     </g>
    </g>
    <g id="xtick_5">
     <g id="line2d_5">
      <path d="M 221.091136 137.030625 
L 221.091136 12.96 
" clip-path="url(#pcf18fd9b37)" style="fill: none; stroke: #ffffff; stroke-linecap: round"/>
     </g>
     <g id="text_5">
      <!-- 20 -->
      <g style="fill: #262626" transform="translate(214.974105 154.404219) scale(0.11 -0.11)">
       <defs>
        <path id="ArialMT-32" d="M 3222 541 
L 3222 0 
L 194 0 
Q 188 203 259 391 
Q 375 700 629 1000 
Q 884 1300 1366 1694 
Q 2113 2306 2375 2664 
Q 2638 3022 2638 3341 
Q 2638 3675 2398 3904 
Q 2159 4134 1775 4134 
Q 1369 4134 1125 3890 
Q 881 3647 878 3216 
L 300 3275 
Q 359 3922 746 4261 
Q 1134 4600 1788 4600 
Q 2447 4600 2831 4234 
Q 3216 3869 3216 3328 
Q 3216 3053 3103 2787 
Q 2991 2522 2730 2228 
Q 2469 1934 1863 1422 
Q 1356 997 1212 845 
Q 1069 694 975 541 
L 3222 541 
z
" transform="scale(0.015625)"/>
       </defs>
       <use xlink:href="#ArialMT-32"/>
       <use xlink:href="#ArialMT-30" x="55.615234"/>
      </g>
     </g>
    </g>
    <g id="xtick_6">
     <g id="line2d_6">
      <path d="M 260.811307 137.030625 
L 260.811307 12.96 
" clip-path="url(#pcf18fd9b37)" style="fill: none; stroke: #ffffff; stroke-linecap: round"/>
     </g>
     <g id="text_6">
      <!-- 25 -->
      <g style="fill: #262626" transform="translate(254.694276 154.404219) scale(0.11 -0.11)">
       <use xlink:href="#ArialMT-32"/>
       <use xlink:href="#ArialMT-35" x="55.615234"/>
      </g>
     </g>
    </g>
    <g id="xtick_7">
     <g id="line2d_7">
      <path d="M 300.531477 137.030625 
L 300.531477 12.96 
" clip-path="url(#pcf18fd9b37)" style="fill: none; stroke: #ffffff; stroke-linecap: round"/>
     </g>
     <g id="text_7">
      <!-- 30 -->
      <g style="fill: #262626" transform="translate(294.414446 154.404219) scale(0.11 -0.11)">
       <defs>
        <path id="ArialMT-33" d="M 269 1209 
L 831 1284 
Q 928 806 1161 595 
Q 1394 384 1728 384 
Q 2125 384 2398 659 
Q 2672 934 2672 1341 
Q 2672 1728 2419 1979 
Q 2166 2231 1775 2231 
Q 1616 2231 1378 2169 
L 1441 2663 
Q 1497 2656 1531 2656 
Q 1891 2656 2178 2843 
Q 2466 3031 2466 3422 
Q 2466 3731 2256 3934 
Q 2047 4138 1716 4138 
Q 1388 4138 1169 3931 
Q 950 3725 888 3313 
L 325 3413 
Q 428 3978 793 4289 
Q 1159 4600 1703 4600 
Q 2078 4600 2393 4439 
Q 2709 4278 2876 4000 
Q 3044 3722 3044 3409 
Q 3044 3113 2884 2869 
Q 2725 2625 2413 2481 
Q 2819 2388 3044 2092 
Q 3269 1797 3269 1353 
Q 3269 753 2831 336 
Q 2394 -81 1725 -81 
Q 1122 -81 723 278 
Q 325 638 269 1209 
z
" transform="scale(0.015625)"/>
       </defs>
       <use xlink:href="#ArialMT-33"/>
       <use xlink:href="#ArialMT-30" x="55.615234"/>
      </g>
     </g>
    </g>
    <g id="text_8">
     <!-- empty_slots -->
     <g style="fill: #262626" transform="translate(157.304062 169.179844) scale(0.12 -0.12)">
      <defs>
       <path id="ArialMT-65" d="M 2694 1069 
L 3275 997 
Q 3138 488 2766 206 
Q 2394 -75 1816 -75 
Q 1088 -75 661 373 
Q 234 822 234 1631 
Q 234 2469 665 2931 
Q 1097 3394 1784 3394 
Q 2450 3394 2872 2941 
Q 3294 2488 3294 1666 
Q 3294 1616 3291 1516 
L 816 1516 
Q 847 969 1125 678 
Q 1403 388 1819 388 
Q 2128 388 2347 550 
Q 2566 713 2694 1069 
z
M 847 1978 
L 2700 1978 
Q 2663 2397 2488 2606 
Q 2219 2931 1791 2931 
Q 1403 2931 1139 2672 
Q 875 2413 847 1978 
z
" transform="scale(0.015625)"/>
       <path id="ArialMT-6d" d="M 422 0 
L 422 3319 
L 925 3319 
L 925 2853 
Q 1081 3097 1340 3245 
Q 1600 3394 1931 3394 
Q 2300 3394 2536 3241 
Q 2772 3088 2869 2813 
Q 3263 3394 3894 3394 
Q 4388 3394 4653 3120 
Q 4919 2847 4919 2278 
L 4919 0 
L 4359 0 
L 4359 2091 
Q 4359 2428 4304 2576 
Q 4250 2725 4106 2815 
Q 3963 2906 3769 2906 
Q 3419 2906 3187 2673 
Q 2956 2441 2956 1928 
L 2956 0 
L 2394 0 
L 2394 2156 
Q 2394 2531 2256 2718 
Q 2119 2906 1806 2906 
Q 1569 2906 1367 2781 
Q 1166 2656 1075 2415 
Q 984 2175 984 1722 
L 984 0 
L 422 0 
z
" transform="scale(0.015625)"/>
       <path id="ArialMT-70" d="M 422 -1272 
L 422 3319 
L 934 3319 
L 934 2888 
Q 1116 3141 1344 3267 
Q 1572 3394 1897 3394 
Q 2322 3394 2647 3175 
Q 2972 2956 3137 2557 
Q 3303 2159 3303 1684 
Q 3303 1175 3120 767 
Q 2938 359 2589 142 
Q 2241 -75 1856 -75 
Q 1575 -75 1351 44 
Q 1128 163 984 344 
L 984 -1272 
L 422 -1272 
z
M 931 1641 
Q 931 1000 1190 694 
Q 1450 388 1819 388 
Q 2194 388 2461 705 
Q 2728 1022 2728 1688 
Q 2728 2322 2467 2637 
Q 2206 2953 1844 2953 
Q 1484 2953 1207 2617 
Q 931 2281 931 1641 
z
" transform="scale(0.015625)"/>
       <path id="ArialMT-74" d="M 1650 503 
L 1731 6 
Q 1494 -44 1306 -44 
Q 1000 -44 831 53 
Q 663 150 594 308 
Q 525 466 525 972 
L 525 2881 
L 113 2881 
L 113 3319 
L 525 3319 
L 525 4141 
L 1084 4478 
L 1084 3319 
L 1650 3319 
L 1650 2881 
L 1084 2881 
L 1084 941 
Q 1084 700 1114 631 
Q 1144 563 1211 522 
Q 1278 481 1403 481 
Q 1497 481 1650 503 
z
" transform="scale(0.015625)"/>
       <path id="ArialMT-79" d="M 397 -1278 
L 334 -750 
Q 519 -800 656 -800 
Q 844 -800 956 -737 
Q 1069 -675 1141 -563 
Q 1194 -478 1313 -144 
Q 1328 -97 1363 -6 
L 103 3319 
L 709 3319 
L 1400 1397 
Q 1534 1031 1641 628 
Q 1738 1016 1872 1384 
L 2581 3319 
L 3144 3319 
L 1881 -56 
Q 1678 -603 1566 -809 
Q 1416 -1088 1222 -1217 
Q 1028 -1347 759 -1347 
Q 597 -1347 397 -1278 
z
" transform="scale(0.015625)"/>
       <path id="ArialMT-5f" d="M -97 -1272 
L -97 -866 
L 3631 -866 
L 3631 -1272 
L -97 -1272 
z
" transform="scale(0.015625)"/>
       <path id="ArialMT-73" d="M 197 991 
L 753 1078 
Q 800 744 1014 566 
Q 1228 388 1613 388 
Q 2000 388 2187 545 
Q 2375 703 2375 916 
Q 2375 1106 2209 1216 
Q 2094 1291 1634 1406 
Q 1016 1563 777 1677 
Q 538 1791 414 1992 
Q 291 2194 291 2438 
Q 291 2659 392 2848 
Q 494 3038 669 3163 
Q 800 3259 1026 3326 
Q 1253 3394 1513 3394 
Q 1903 3394 2198 3281 
Q 2494 3169 2634 2976 
Q 2775 2784 2828 2463 
L 2278 2388 
Q 2241 2644 2061 2787 
Q 1881 2931 1553 2931 
Q 1166 2931 1000 2803 
Q 834 2675 834 2503 
Q 834 2394 903 2306 
Q 972 2216 1119 2156 
Q 1203 2125 1616 2013 
Q 2213 1853 2448 1751 
Q 2684 1650 2818 1456 
Q 2953 1263 2953 975 
Q 2953 694 2789 445 
Q 2625 197 2315 61 
Q 2006 -75 1616 -75 
Q 969 -75 630 194 
Q 291 463 197 991 
z
" transform="scale(0.015625)"/>
       <path id="ArialMT-6c" d="M 409 0 
L 409 4581 
L 972 4581 
L 972 0 
L 409 0 
z
" transform="scale(0.015625)"/>
       <path id="ArialMT-6f" d="M 213 1659 
Q 213 2581 725 3025 
Q 1153 3394 1769 3394 
Q 2453 3394 2887 2945 
Q 3322 2497 3322 1706 
Q 3322 1066 3130 698 
Q 2938 331 2570 128 
Q 2203 -75 1769 -75 
Q 1072 -75 642 372 
Q 213 819 213 1659 
z
M 791 1659 
Q 791 1022 1069 705 
Q 1347 388 1769 388 
Q 2188 388 2466 706 
Q 2744 1025 2744 1678 
Q 2744 2294 2464 2611 
Q 2184 2928 1769 2928 
Q 1347 2928 1069 2612 
Q 791 2297 791 1659 
z
" transform="scale(0.015625)"/>
      </defs>
      <use xlink:href="#ArialMT-65"/>
      <use xlink:href="#ArialMT-6d" x="55.615234"/>
      <use xlink:href="#ArialMT-70" x="138.916016"/>
      <use xlink:href="#ArialMT-74" x="194.53125"/>
      <use xlink:href="#ArialMT-79" x="222.314453"/>
      <use xlink:href="#ArialMT-5f" x="272.314453"/>
      <use xlink:href="#ArialMT-73" x="327.929688"/>
      <use xlink:href="#ArialMT-6c" x="377.929688"/>
      <use xlink:href="#ArialMT-6f" x="400.146484"/>
      <use xlink:href="#ArialMT-74" x="455.761719"/>
      <use xlink:href="#ArialMT-73" x="483.544922"/>
     </g>
    </g>
   </g>
   <g id="matplotlib.axis_2">
    <g id="ytick_1">
     <g id="line2d_8">
      <path d="M 49.5 137.030625 
L 329.13 137.030625 
" clip-path="url(#pcf18fd9b37)" style="fill: none; stroke: #ffffff; stroke-linecap: round"/>
     </g>
     <g id="text_9">
      <!-- 0 -->
      <g style="fill: #262626" transform="translate(33.882969 140.967422) scale(0.11 -0.11)">
       <use xlink:href="#ArialMT-30"/>
      </g>
     </g>
    </g>
    <g id="ytick_2">
     <g id="line2d_9">
      <path d="M 49.5 111.889668 
L 329.13 111.889668 
" clip-path="url(#pcf18fd9b37)" style="fill: none; stroke: #ffffff; stroke-linecap: round"/>
     </g>
     <g id="text_10">
      <!-- 10 -->
      <g style="fill: #262626" transform="translate(27.765938 115.826464) scale(0.11 -0.11)">
       <use xlink:href="#ArialMT-31"/>
       <use xlink:href="#ArialMT-30" x="55.615234"/>
      </g>
     </g>
    </g>
    <g id="ytick_3">
     <g id="line2d_10">
      <path d="M 49.5 86.74871 
L 329.13 86.74871 
" clip-path="url(#pcf18fd9b37)" style="fill: none; stroke: #ffffff; stroke-linecap: round"/>
     </g>
     <g id="text_11">
      <!-- 20 -->
      <g style="fill: #262626" transform="translate(27.765938 90.685507) scale(0.11 -0.11)">
       <use xlink:href="#ArialMT-32"/>
       <use xlink:href="#ArialMT-30" x="55.615234"/>
      </g>
     </g>
    </g>
    <g id="ytick_4">
     <g id="line2d_11">
      <path d="M 49.5 61.607753 
L 329.13 61.607753 
" clip-path="url(#pcf18fd9b37)" style="fill: none; stroke: #ffffff; stroke-linecap: round"/>
     </g>
     <g id="text_12">
      <!-- 30 -->
      <g style="fill: #262626" transform="translate(27.765938 65.54455) scale(0.11 -0.11)">
       <use xlink:href="#ArialMT-33"/>
       <use xlink:href="#ArialMT-30" x="55.615234"/>
      </g>
     </g>
    </g>
    <g id="ytick_5">
     <g id="line2d_12">
      <path d="M 49.5 36.466795 
L 329.13 36.466795 
" clip-path="url(#pcf18fd9b37)" style="fill: none; stroke: #ffffff; stroke-linecap: round"/>
     </g>
     <g id="text_13">
      <!-- 40 -->
      <g style="fill: #262626" transform="translate(27.765938 40.403592) scale(0.11 -0.11)">
       <defs>
        <path id="ArialMT-34" d="M 2069 0 
L 2069 1097 
L 81 1097 
L 81 1613 
L 2172 4581 
L 2631 4581 
L 2631 1613 
L 3250 1613 
L 3250 1097 
L 2631 1097 
L 2631 0 
L 2069 0 
z
M 2069 1613 
L 2069 3678 
L 634 1613 
L 2069 1613 
z
" transform="scale(0.015625)"/>
       </defs>
       <use xlink:href="#ArialMT-34"/>
       <use xlink:href="#ArialMT-30" x="55.615234"/>
      </g>
     </g>
    </g>
    <g id="text_14">
     <!-- Count -->
     <g style="fill: #262626" transform="translate(21.380938 91.005) rotate(-90) scale(0.12 -0.12)">
      <defs>
       <path id="ArialMT-43" d="M 3763 1606 
L 4369 1453 
Q 4178 706 3683 314 
Q 3188 -78 2472 -78 
Q 1731 -78 1267 223 
Q 803 525 561 1097 
Q 319 1669 319 2325 
Q 319 3041 592 3573 
Q 866 4106 1370 4382 
Q 1875 4659 2481 4659 
Q 3169 4659 3637 4309 
Q 4106 3959 4291 3325 
L 3694 3184 
Q 3534 3684 3231 3912 
Q 2928 4141 2469 4141 
Q 1941 4141 1586 3887 
Q 1231 3634 1087 3207 
Q 944 2781 944 2328 
Q 944 1744 1114 1308 
Q 1284 872 1643 656 
Q 2003 441 2422 441 
Q 2931 441 3284 734 
Q 3638 1028 3763 1606 
z
" transform="scale(0.015625)"/>
       <path id="ArialMT-75" d="M 2597 0 
L 2597 488 
Q 2209 -75 1544 -75 
Q 1250 -75 995 37 
Q 741 150 617 320 
Q 494 491 444 738 
Q 409 903 409 1263 
L 409 3319 
L 972 3319 
L 972 1478 
Q 972 1038 1006 884 
Q 1059 663 1231 536 
Q 1403 409 1656 409 
Q 1909 409 2131 539 
Q 2353 669 2445 892 
Q 2538 1116 2538 1541 
L 2538 3319 
L 3100 3319 
L 3100 0 
L 2597 0 
z
" transform="scale(0.015625)"/>
       <path id="ArialMT-6e" d="M 422 0 
L 422 3319 
L 928 3319 
L 928 2847 
Q 1294 3394 1984 3394 
Q 2284 3394 2536 3286 
Q 2788 3178 2913 3003 
Q 3038 2828 3088 2588 
Q 3119 2431 3119 2041 
L 3119 0 
L 2556 0 
L 2556 2019 
Q 2556 2363 2490 2533 
Q 2425 2703 2258 2804 
Q 2091 2906 1866 2906 
Q 1506 2906 1245 2678 
Q 984 2450 984 1813 
L 984 0 
L 422 0 
z
" transform="scale(0.015625)"/>
      </defs>
      <use xlink:href="#ArialMT-43"/>
      <use xlink:href="#ArialMT-6f" x="72.216797"/>
      <use xlink:href="#ArialMT-75" x="127.832031"/>
      <use xlink:href="#ArialMT-6e" x="183.447266"/>
      <use xlink:href="#ArialMT-74" x="239.0625"/>
     </g>
    </g>
   </g>
   <g id="patch_3">
    <path d="M 62.210455 137.030625 
L 77.16393 137.030625 
L 77.16393 96.805093 
L 62.210455 96.805093 
z
" clip-path="url(#pcf18fd9b37)" style="fill: #0173b2; fill-opacity: 0.5; stroke: #ffffff; stroke-linejoin: miter"/>
   </g>
   <g id="patch_4">
    <path d="M 77.16393 137.030625 
L 92.117406 137.030625 
L 92.117406 111.889668 
L 77.16393 111.889668 
z
" clip-path="url(#pcf18fd9b37)" style="fill: #0173b2; fill-opacity: 0.5; stroke: #ffffff; stroke-linejoin: miter"/>
   </g>
   <g id="patch_5">
    <path d="M 92.117406 137.030625 
L 107.070882 137.030625 
L 107.070882 74.178231 
L 92.117406 74.178231 
z
" clip-path="url(#pcf18fd9b37)" style="fill: #0173b2; fill-opacity: 0.5; stroke: #ffffff; stroke-linejoin: miter"/>
   </g>
   <g id="patch_6">
    <path d="M 107.070882 137.030625 
L 122.024358 137.030625 
L 122.024358 18.868125 
L 107.070882 18.868125 
z
" clip-path="url(#pcf18fd9b37)" style="fill: #0173b2; fill-opacity: 0.5; stroke: #ffffff; stroke-linejoin: miter"/>
   </g>
   <g id="patch_7">
    <path d="M 122.024358 137.030625 
L 136.977834 137.030625 
L 136.977834 79.206423 
L 122.024358 79.206423 
z
" clip-path="url(#pcf18fd9b37)" style="fill: #0173b2; fill-opacity: 0.5; stroke: #ffffff; stroke-linejoin: miter"/>
   </g>
   <g id="patch_8">
    <path d="M 136.977834 137.030625 
L 151.93131 137.030625 
L 151.93131 124.460146 
L 136.977834 124.460146 
z
" clip-path="url(#pcf18fd9b37)" style="fill: #0173b2; fill-opacity: 0.5; stroke: #ffffff; stroke-linejoin: miter"/>
   </g>
   <g id="patch_9">
    <path d="M 151.93131 137.030625 
L 166.884786 137.030625 
L 166.884786 121.946051 
L 151.93131 121.946051 
z
" clip-path="url(#pcf18fd9b37)" style="fill: #0173b2; fill-opacity: 0.5; stroke: #ffffff; stroke-linejoin: miter"/>
   </g>
   <g id="patch_10">
    <path d="M 166.884786 137.030625 
L 181.838262 137.030625 
L 181.838262 126.974242 
L 166.884786 126.974242 
z
" clip-path="url(#pcf18fd9b37)" style="fill: #0173b2; fill-opacity: 0.5; stroke: #ffffff; stroke-linejoin: miter"/>
   </g>
   <g id="patch_11">
    <path d="M 181.838262 137.030625 
L 196.791738 137.030625 
L 196.791738 137.030625 
L 181.838262 137.030625 
z
" clip-path="url(#pcf18fd9b37)" style="fill: #0173b2; fill-opacity: 0.5; stroke: #ffffff; stroke-linejoin: miter"/>
   </g>
   <g id="patch_12">
    <path d="M 196.791738 137.030625 
L 211.745214 137.030625 
L 211.745214 129.488338 
L 196.791738 129.488338 
z
" clip-path="url(#pcf18fd9b37)" style="fill: #0173b2; fill-opacity: 0.5; stroke: #ffffff; stroke-linejoin: miter"/>
   </g>
   <g id="patch_13">
    <path d="M 211.745214 137.030625 
L 226.69869 137.030625 
L 226.69869 134.516529 
L 211.745214 134.516529 
z
" clip-path="url(#pcf18fd9b37)" style="fill: #0173b2; fill-opacity: 0.5; stroke: #ffffff; stroke-linejoin: miter"/>
   </g>
   <g id="patch_14">
    <path d="M 226.69869 137.030625 
L 241.652166 137.030625 
L 241.652166 134.516529 
L 226.69869 134.516529 
z
" clip-path="url(#pcf18fd9b37)" style="fill: #0173b2; fill-opacity: 0.5; stroke: #ffffff; stroke-linejoin: miter"/>
   </g>
   <g id="patch_15">
    <path d="M 241.652166 137.030625 
L 256.605642 137.030625 
L 256.605642 137.030625 
L 241.652166 137.030625 
z
" clip-path="url(#pcf18fd9b37)" style="fill: #0173b2; fill-opacity: 0.5; stroke: #ffffff; stroke-linejoin: miter"/>
   </g>
   <g id="patch_16">
    <path d="M 256.605642 137.030625 
L 271.559118 137.030625 
L 271.559118 132.002434 
L 256.605642 132.002434 
z
" clip-path="url(#pcf18fd9b37)" style="fill: #0173b2; fill-opacity: 0.5; stroke: #ffffff; stroke-linejoin: miter"/>
   </g>
   <g id="patch_17">
    <path d="M 271.559118 137.030625 
L 286.512594 137.030625 
L 286.512594 137.030625 
L 271.559118 137.030625 
z
" clip-path="url(#pcf18fd9b37)" style="fill: #0173b2; fill-opacity: 0.5; stroke: #ffffff; stroke-linejoin: miter"/>
   </g>
   <g id="patch_18">
    <path d="M 286.512594 137.030625 
L 301.46607 137.030625 
L 301.46607 137.030625 
L 286.512594 137.030625 
z
" clip-path="url(#pcf18fd9b37)" style="fill: #0173b2; fill-opacity: 0.5; stroke: #ffffff; stroke-linejoin: miter"/>
   </g>
   <g id="patch_19">
    <path d="M 301.46607 137.030625 
L 316.419545 137.030625 
L 316.419545 132.002434 
L 301.46607 132.002434 
z
" clip-path="url(#pcf18fd9b37)" style="fill: #0173b2; fill-opacity: 0.5; stroke: #ffffff; stroke-linejoin: miter"/>
   </g>
   <g id="line2d_13">
    <path d="M 62.210455 115.641849 
L 73.707348 105.944511 
L 77.539646 102.349233 
L 80.094511 99.711656 
L 82.649376 96.840761 
L 85.204242 93.724771 
L 89.03654 88.632512 
L 99.256 74.363007 
L 101.810866 71.283349 
L 104.365731 68.681256 
L 105.643164 67.60151 
L 106.920596 66.689458 
L 108.198029 65.958195 
L 109.475461 65.418868 
L 110.752894 65.080441 
L 112.030327 64.949505 
L 113.307759 65.030139 
L 114.585192 65.323831 
L 115.862624 65.829441 
L 117.140057 66.543234 
L 118.41749 67.45896 
L 119.694922 68.567984 
L 120.972355 69.859469 
L 123.52722 72.936821 
L 126.082085 76.569417 
L 128.636951 80.617356 
L 133.746681 89.366813 
L 138.856412 98.061131 
L 141.411277 102.100915 
L 143.966142 105.828774 
L 146.521007 109.196976 
L 149.075873 112.183375 
L 151.630738 114.789084 
L 154.185603 117.034756 
L 156.740468 118.955854 
L 159.295333 120.597341 
L 161.850199 122.008277 
L 165.682497 123.796407 
L 169.514794 125.310728 
L 174.624525 127.058034 
L 179.734255 128.56905 
L 184.843986 129.831083 
L 189.953716 130.810932 
L 195.063447 131.523255 
L 201.45061 132.164358 
L 218.057234 133.738648 
L 226.999262 134.554303 
L 233.386425 134.928527 
L 239.773588 135.09199 
L 248.715617 135.051813 
L 262.767376 134.934022 
L 270.431971 135.133725 
L 287.038595 135.743966 
L 293.425758 135.696695 
L 304.922652 135.293053 
L 311.309815 135.173881 
L 316.419545 135.241945 
L 316.419545 135.241945 
" clip-path="url(#pcf18fd9b37)" style="fill: none; stroke: #0173b2; stroke-width: 1.5; stroke-linecap: round"/>
   </g>
   <g id="patch_20">
    <path d="M 49.5 137.030625 
L 49.5 12.96 
" style="fill: none; stroke: #ffffff; stroke-width: 1.25; stroke-linejoin: miter; stroke-linecap: square"/>
   </g>
   <g id="patch_21">
    <path d="M 329.13 137.030625 
L 329.13 12.96 
" style="fill: none; stroke: #ffffff; stroke-width: 1.25; stroke-linejoin: miter; stroke-linecap: square"/>
   </g>
   <g id="patch_22">
    <path d="M 49.5 137.030625 
L 329.13 137.030625 
" style="fill: none; stroke: #ffffff; stroke-width: 1.25; stroke-linejoin: miter; stroke-linecap: square"/>
   </g>
   <g id="patch_23">
    <path d="M 49.5 12.96 
L 329.13 12.96 
" style="fill: none; stroke: #ffffff; stroke-width: 1.25; stroke-linejoin: miter; stroke-linecap: square"/>
   </g>
  </g>
  <g id="axes_2">
   <g id="patch_24">
    <path d="M 378.63 137.030625 
L 658.26 137.030625 
L 658.26 12.96 
L 378.63 12.96 
z
" style="fill: #eaeaf2"/>
   </g>
   <g id="matplotlib.axis_3">
    <g id="xtick_8">
     <g id="line2d_14">
      <path d="M 391.340455 137.030625 
L 391.340455 12.96 
" clip-path="url(#pb7d6cbb01f)" style="fill: none; stroke: #ffffff; stroke-linecap: round"/>
     </g>
     <g id="text_15">
      <!-- 0 -->
      <g style="fill: #262626" transform="translate(388.281939 154.404219) scale(0.11 -0.11)">
       <use xlink:href="#ArialMT-30"/>
      </g>
     </g>
    </g>
    <g id="xtick_9">
     <g id="line2d_15">
      <path d="M 449.115248 137.030625 
L 449.115248 12.96 
" clip-path="url(#pb7d6cbb01f)" style="fill: none; stroke: #ffffff; stroke-linecap: round"/>
     </g>
     <g id="text_16">
      <!-- 5 -->
      <g style="fill: #262626" transform="translate(446.056732 154.404219) scale(0.11 -0.11)">
       <use xlink:href="#ArialMT-35"/>
      </g>
     </g>
    </g>
    <g id="xtick_10">
     <g id="line2d_16">
      <path d="M 506.890041 137.030625 
L 506.890041 12.96 
" clip-path="url(#pb7d6cbb01f)" style="fill: none; stroke: #ffffff; stroke-linecap: round"/>
     </g>
     <g id="text_17">
      <!-- 10 -->
      <g style="fill: #262626" transform="translate(500.77301 154.404219) scale(0.11 -0.11)">
       <use xlink:href="#ArialMT-31"/>
       <use xlink:href="#ArialMT-30" x="55.615234"/>
      </g>
     </g>
    </g>
    <g id="xtick_11">
     <g id="line2d_17">
      <path d="M 564.664835 137.030625 
L 564.664835 12.96 
" clip-path="url(#pb7d6cbb01f)" style="fill: none; stroke: #ffffff; stroke-linecap: round"/>
     </g>
     <g id="text_18">
      <!-- 15 -->
      <g style="fill: #262626" transform="translate(558.547803 154.404219) scale(0.11 -0.11)">
       <use xlink:href="#ArialMT-31"/>
       <use xlink:href="#ArialMT-35" x="55.615234"/>
      </g>
     </g>
    </g>
    <g id="xtick_12">
     <g id="line2d_18">
      <path d="M 622.439628 137.030625 
L 622.439628 12.96 
" clip-path="url(#pb7d6cbb01f)" style="fill: none; stroke: #ffffff; stroke-linecap: round"/>
     </g>
     <g id="text_19">
      <!-- 20 -->
      <g style="fill: #262626" transform="translate(616.322597 154.404219) scale(0.11 -0.11)">
       <use xlink:href="#ArialMT-32"/>
       <use xlink:href="#ArialMT-30" x="55.615234"/>
      </g>
     </g>
    </g>
    <g id="text_20">
     <!-- free_bikes -->
     <g style="fill: #262626" transform="translate(490.764375 169.326094) scale(0.12 -0.12)">
      <defs>
       <path id="ArialMT-66" d="M 556 0 
L 556 2881 
L 59 2881 
L 59 3319 
L 556 3319 
L 556 3672 
Q 556 4006 616 4169 
Q 697 4388 901 4523 
Q 1106 4659 1475 4659 
Q 1713 4659 2000 4603 
L 1916 4113 
Q 1741 4144 1584 4144 
Q 1328 4144 1222 4034 
Q 1116 3925 1116 3625 
L 1116 3319 
L 1763 3319 
L 1763 2881 
L 1116 2881 
L 1116 0 
L 556 0 
z
" transform="scale(0.015625)"/>
       <path id="ArialMT-72" d="M 416 0 
L 416 3319 
L 922 3319 
L 922 2816 
Q 1116 3169 1280 3281 
Q 1444 3394 1641 3394 
Q 1925 3394 2219 3213 
L 2025 2691 
Q 1819 2813 1613 2813 
Q 1428 2813 1281 2702 
Q 1134 2591 1072 2394 
Q 978 2094 978 1738 
L 978 0 
L 416 0 
z
" transform="scale(0.015625)"/>
       <path id="ArialMT-62" d="M 941 0 
L 419 0 
L 419 4581 
L 981 4581 
L 981 2947 
Q 1338 3394 1891 3394 
Q 2197 3394 2470 3270 
Q 2744 3147 2920 2923 
Q 3097 2700 3197 2384 
Q 3297 2069 3297 1709 
Q 3297 856 2875 390 
Q 2453 -75 1863 -75 
Q 1275 -75 941 416 
L 941 0 
z
M 934 1684 
Q 934 1088 1097 822 
Q 1363 388 1816 388 
Q 2184 388 2453 708 
Q 2722 1028 2722 1663 
Q 2722 2313 2464 2622 
Q 2206 2931 1841 2931 
Q 1472 2931 1203 2611 
Q 934 2291 934 1684 
z
" transform="scale(0.015625)"/>
       <path id="ArialMT-69" d="M 425 3934 
L 425 4581 
L 988 4581 
L 988 3934 
L 425 3934 
z
M 425 0 
L 425 3319 
L 988 3319 
L 988 0 
L 425 0 
z
" transform="scale(0.015625)"/>
       <path id="ArialMT-6b" d="M 425 0 
L 425 4581 
L 988 4581 
L 988 1969 
L 2319 3319 
L 3047 3319 
L 1778 2088 
L 3175 0 
L 2481 0 
L 1384 1697 
L 988 1316 
L 988 0 
L 425 0 
z
" transform="scale(0.015625)"/>
      </defs>
      <use xlink:href="#ArialMT-66"/>
      <use xlink:href="#ArialMT-72" x="27.783203"/>
      <use xlink:href="#ArialMT-65" x="61.083984"/>
      <use xlink:href="#ArialMT-65" x="116.699219"/>
      <use xlink:href="#ArialMT-5f" x="172.314453"/>
      <use xlink:href="#ArialMT-62" x="227.929688"/>
      <use xlink:href="#ArialMT-69" x="283.544922"/>
      <use xlink:href="#ArialMT-6b" x="305.761719"/>
      <use xlink:href="#ArialMT-65" x="355.761719"/>
      <use xlink:href="#ArialMT-73" x="411.376953"/>
     </g>
    </g>
   </g>
   <g id="matplotlib.axis_4">
    <g id="ytick_6">
     <g id="line2d_19">
      <path d="M 378.63 137.030625 
L 658.26 137.030625 
" clip-path="url(#pb7d6cbb01f)" style="fill: none; stroke: #ffffff; stroke-linecap: round"/>
     </g>
     <g id="text_21">
      <!-- 0 -->
      <g style="fill: #262626" transform="translate(363.012969 140.967422) scale(0.11 -0.11)">
       <use xlink:href="#ArialMT-30"/>
      </g>
     </g>
    </g>
    <g id="ytick_7">
     <g id="line2d_20">
      <path d="M 378.63 93.266736 
L 658.26 93.266736 
" clip-path="url(#pb7d6cbb01f)" style="fill: none; stroke: #ffffff; stroke-linecap: round"/>
     </g>
     <g id="text_22">
      <!-- 10 -->
      <g style="fill: #262626" transform="translate(356.895937 97.203533) scale(0.11 -0.11)">
       <use xlink:href="#ArialMT-31"/>
       <use xlink:href="#ArialMT-30" x="55.615234"/>
      </g>
     </g>
    </g>
    <g id="ytick_8">
     <g id="line2d_21">
      <path d="M 378.63 49.502847 
L 658.26 49.502847 
" clip-path="url(#pb7d6cbb01f)" style="fill: none; stroke: #ffffff; stroke-linecap: round"/>
     </g>
     <g id="text_23">
      <!-- 20 -->
      <g style="fill: #262626" transform="translate(356.895937 53.439644) scale(0.11 -0.11)">
       <use xlink:href="#ArialMT-32"/>
       <use xlink:href="#ArialMT-30" x="55.615234"/>
      </g>
     </g>
    </g>
    <g id="text_24">
     <!-- Count -->
     <g style="fill: #262626" transform="translate(350.510937 91.005) rotate(-90) scale(0.12 -0.12)">
      <use xlink:href="#ArialMT-43"/>
      <use xlink:href="#ArialMT-6f" x="72.216797"/>
      <use xlink:href="#ArialMT-75" x="127.832031"/>
      <use xlink:href="#ArialMT-6e" x="183.447266"/>
      <use xlink:href="#ArialMT-74" x="239.0625"/>
     </g>
    </g>
   </g>
   <g id="patch_25">
    <path d="M 391.340455 137.030625 
L 404.050909 137.030625 
L 404.050909 58.255625 
L 391.340455 58.255625 
z
" clip-path="url(#pb7d6cbb01f)" style="fill: #0173b2; fill-opacity: 0.5; stroke: #ffffff; stroke-linejoin: miter"/>
   </g>
   <g id="patch_26">
    <path d="M 404.050909 137.030625 
L 416.761364 137.030625 
L 416.761364 88.890347 
L 404.050909 88.890347 
z
" clip-path="url(#pb7d6cbb01f)" style="fill: #0173b2; fill-opacity: 0.5; stroke: #ffffff; stroke-linejoin: miter"/>
   </g>
   <g id="patch_27">
    <path d="M 416.761364 137.030625 
L 429.471818 137.030625 
L 429.471818 18.868125 
L 416.761364 18.868125 
z
" clip-path="url(#pb7d6cbb01f)" style="fill: #0173b2; fill-opacity: 0.5; stroke: #ffffff; stroke-linejoin: miter"/>
   </g>
   <g id="patch_28">
    <path d="M 429.471818 137.030625 
L 442.182273 137.030625 
L 442.182273 36.373681 
L 429.471818 36.373681 
z
" clip-path="url(#pb7d6cbb01f)" style="fill: #0173b2; fill-opacity: 0.5; stroke: #ffffff; stroke-linejoin: miter"/>
   </g>
   <g id="patch_29">
    <path d="M 442.182273 137.030625 
L 454.892727 137.030625 
L 454.892727 75.761181 
L 442.182273 75.761181 
z
" clip-path="url(#pb7d6cbb01f)" style="fill: #0173b2; fill-opacity: 0.5; stroke: #ffffff; stroke-linejoin: miter"/>
   </g>
   <g id="patch_30">
    <path d="M 454.892727 137.030625 
L 467.603182 137.030625 
L 467.603182 58.255625 
L 454.892727 58.255625 
z
" clip-path="url(#pb7d6cbb01f)" style="fill: #0173b2; fill-opacity: 0.5; stroke: #ffffff; stroke-linejoin: miter"/>
   </g>
   <g id="patch_31">
    <path d="M 467.603182 137.030625 
L 480.313636 137.030625 
L 480.313636 84.513958 
L 467.603182 84.513958 
z
" clip-path="url(#pb7d6cbb01f)" style="fill: #0173b2; fill-opacity: 0.5; stroke: #ffffff; stroke-linejoin: miter"/>
   </g>
   <g id="patch_32">
    <path d="M 480.313636 137.030625 
L 493.024091 137.030625 
L 493.024091 119.525069 
L 480.313636 119.525069 
z
" clip-path="url(#pb7d6cbb01f)" style="fill: #0173b2; fill-opacity: 0.5; stroke: #ffffff; stroke-linejoin: miter"/>
   </g>
   <g id="patch_33">
    <path d="M 493.024091 137.030625 
L 505.734545 137.030625 
L 505.734545 119.525069 
L 493.024091 119.525069 
z
" clip-path="url(#pb7d6cbb01f)" style="fill: #0173b2; fill-opacity: 0.5; stroke: #ffffff; stroke-linejoin: miter"/>
   </g>
   <g id="patch_34">
    <path d="M 505.734545 137.030625 
L 518.445 137.030625 
L 518.445 115.148681 
L 505.734545 115.148681 
z
" clip-path="url(#pb7d6cbb01f)" style="fill: #0173b2; fill-opacity: 0.5; stroke: #ffffff; stroke-linejoin: miter"/>
   </g>
   <g id="patch_35">
    <path d="M 518.445 137.030625 
L 531.155455 137.030625 
L 531.155455 119.525069 
L 518.445 119.525069 
z
" clip-path="url(#pb7d6cbb01f)" style="fill: #0173b2; fill-opacity: 0.5; stroke: #ffffff; stroke-linejoin: miter"/>
   </g>
   <g id="patch_36">
    <path d="M 531.155455 137.030625 
L 543.865909 137.030625 
L 543.865909 128.277847 
L 531.155455 128.277847 
z
" clip-path="url(#pb7d6cbb01f)" style="fill: #0173b2; fill-opacity: 0.5; stroke: #ffffff; stroke-linejoin: miter"/>
   </g>
   <g id="patch_37">
    <path d="M 543.865909 137.030625 
L 556.576364 137.030625 
L 556.576364 137.030625 
L 543.865909 137.030625 
z
" clip-path="url(#pb7d6cbb01f)" style="fill: #0173b2; fill-opacity: 0.5; stroke: #ffffff; stroke-linejoin: miter"/>
   </g>
   <g id="patch_38">
    <path d="M 556.576364 137.030625 
L 569.286818 137.030625 
L 569.286818 137.030625 
L 556.576364 137.030625 
z
" clip-path="url(#pb7d6cbb01f)" style="fill: #0173b2; fill-opacity: 0.5; stroke: #ffffff; stroke-linejoin: miter"/>
   </g>
   <g id="patch_39">
    <path d="M 569.286818 137.030625 
L 581.997273 137.030625 
L 581.997273 137.030625 
L 569.286818 137.030625 
z
" clip-path="url(#pb7d6cbb01f)" style="fill: #0173b2; fill-opacity: 0.5; stroke: #ffffff; stroke-linejoin: miter"/>
   </g>
   <g id="patch_40">
    <path d="M 581.997273 137.030625 
L 594.707727 137.030625 
L 594.707727 132.654236 
L 581.997273 132.654236 
z
" clip-path="url(#pb7d6cbb01f)" style="fill: #0173b2; fill-opacity: 0.5; stroke: #ffffff; stroke-linejoin: miter"/>
   </g>
   <g id="patch_41">
    <path d="M 594.707727 137.030625 
L 607.418182 137.030625 
L 607.418182 137.030625 
L 594.707727 137.030625 
z
" clip-path="url(#pb7d6cbb01f)" style="fill: #0173b2; fill-opacity: 0.5; stroke: #ffffff; stroke-linejoin: miter"/>
   </g>
   <g id="patch_42">
    <path d="M 607.418182 137.030625 
L 620.128636 137.030625 
L 620.128636 137.030625 
L 607.418182 137.030625 
z
" clip-path="url(#pb7d6cbb01f)" style="fill: #0173b2; fill-opacity: 0.5; stroke: #ffffff; stroke-linejoin: miter"/>
   </g>
   <g id="patch_43">
    <path d="M 620.128636 137.030625 
L 632.839091 137.030625 
L 632.839091 137.030625 
L 620.128636 137.030625 
z
" clip-path="url(#pb7d6cbb01f)" style="fill: #0173b2; fill-opacity: 0.5; stroke: #ffffff; stroke-linejoin: miter"/>
   </g>
   <g id="patch_44">
    <path d="M 632.839091 137.030625 
L 645.549545 137.030625 
L 645.549545 128.277847 
L 632.839091 128.277847 
z
" clip-path="url(#pb7d6cbb01f)" style="fill: #0173b2; fill-opacity: 0.5; stroke: #ffffff; stroke-linejoin: miter"/>
   </g>
   <g id="line2d_22">
    <path d="M 391.340455 106.415175 
L 395.172752 100.032367 
L 400.282483 90.979575 
L 405.392213 81.397668 
L 416.889107 59.395073 
L 419.443972 55.017659 
L 421.998837 51.104154 
L 424.553703 47.787088 
L 425.831135 46.388135 
L 427.108568 45.177486 
L 428.386 44.163515 
L 429.663433 43.351842 
L 430.940866 42.745185 
L 432.218298 42.343319 
L 433.495731 42.14314 
L 434.773164 42.138823 
L 436.050596 42.322084 
L 437.328029 42.682517 
L 438.605461 43.208001 
L 439.882894 43.885154 
L 442.437759 45.637531 
L 444.992624 47.825653 
L 447.54749 50.344972 
L 451.379788 54.567984 
L 455.212085 59.180627 
L 459.044383 64.131829 
L 462.876681 69.435961 
L 466.708979 75.096169 
L 471.818709 83.059091 
L 478.205873 93.021835 
L 482.03817 98.533132 
L 484.593036 101.86077 
L 487.147901 104.853954 
L 489.702766 107.489883 
L 492.257631 109.770449 
L 494.812497 111.720174 
L 497.367362 113.381635 
L 499.922227 114.809209 
L 503.754525 116.64122 
L 510.141688 119.305447 
L 530.58061 127.49911 
L 535.69034 129.239195 
L 542.077503 131.159337 
L 548.464667 132.828143 
L 553.574397 133.954659 
L 558.684127 134.83272 
L 562.516425 135.296036 
L 566.348723 135.585403 
L 571.458454 135.731892 
L 579.123049 135.639566 
L 588.065078 135.532636 
L 595.729673 135.686789 
L 608.504 136.012836 
L 613.61373 135.921811 
L 620.000893 135.559147 
L 636.607517 134.36806 
L 641.717248 134.343529 
L 645.549545 134.487119 
L 645.549545 134.487119 
" clip-path="url(#pb7d6cbb01f)" style="fill: none; stroke: #0173b2; stroke-width: 1.5; stroke-linecap: round"/>
   </g>
   <g id="patch_45">
    <path d="M 378.63 137.030625 
L 378.63 12.96 
" style="fill: none; stroke: #ffffff; stroke-width: 1.25; stroke-linejoin: miter; stroke-linecap: square"/>
   </g>
   <g id="patch_46">
    <path d="M 658.26 137.030625 
L 658.26 12.96 
" style="fill: none; stroke: #ffffff; stroke-width: 1.25; stroke-linejoin: miter; stroke-linecap: square"/>
   </g>
   <g id="patch_47">
    <path d="M 378.63 137.030625 
L 658.26 137.030625 
" style="fill: none; stroke: #ffffff; stroke-width: 1.25; stroke-linejoin: miter; stroke-linecap: square"/>
   </g>
   <g id="patch_48">
    <path d="M 378.63 12.96 
L 658.26 12.96 
" style="fill: none; stroke: #ffffff; stroke-width: 1.25; stroke-linejoin: miter; stroke-linecap: square"/>
   </g>
  </g>
  <g id="axes_3">
   <g id="patch_49">
    <path d="M 707.76 137.030625 
L 987.39 137.030625 
L 987.39 12.96 
L 707.76 12.96 
z
" style="fill: #eaeaf2"/>
   </g>
   <g id="matplotlib.axis_5">
    <g id="xtick_13">
     <g id="line2d_23">
      <path d="M 765.093794 137.030625 
L 765.093794 12.96 
" clip-path="url(#paebc8cf328)" style="fill: none; stroke: #ffffff; stroke-linecap: round"/>
     </g>
     <g id="text_25">
      <!-- 20 -->
      <g style="fill: #262626" transform="translate(758.976763 154.404219) scale(0.11 -0.11)">
       <use xlink:href="#ArialMT-32"/>
       <use xlink:href="#ArialMT-30" x="55.615234"/>
      </g>
     </g>
    </g>
    <g id="xtick_14">
     <g id="line2d_24">
      <path d="M 822.672297 137.030625 
L 822.672297 12.96 
" clip-path="url(#paebc8cf328)" style="fill: none; stroke: #ffffff; stroke-linecap: round"/>
     </g>
     <g id="text_26">
      <!-- 40 -->
      <g style="fill: #262626" transform="translate(816.555266 154.404219) scale(0.11 -0.11)">
       <use xlink:href="#ArialMT-34"/>
       <use xlink:href="#ArialMT-30" x="55.615234"/>
      </g>
     </g>
    </g>
    <g id="xtick_15">
     <g id="line2d_25">
      <path d="M 880.2508 137.030625 
L 880.2508 12.96 
" clip-path="url(#paebc8cf328)" style="fill: none; stroke: #ffffff; stroke-linecap: round"/>
     </g>
     <g id="text_27">
      <!-- 60 -->
      <g style="fill: #262626" transform="translate(874.133769 154.404219) scale(0.11 -0.11)">
       <defs>
        <path id="ArialMT-36" d="M 3184 3459 
L 2625 3416 
Q 2550 3747 2413 3897 
Q 2184 4138 1850 4138 
Q 1581 4138 1378 3988 
Q 1113 3794 959 3422 
Q 806 3050 800 2363 
Q 1003 2672 1297 2822 
Q 1591 2972 1913 2972 
Q 2475 2972 2870 2558 
Q 3266 2144 3266 1488 
Q 3266 1056 3080 686 
Q 2894 316 2569 119 
Q 2244 -78 1831 -78 
Q 1128 -78 684 439 
Q 241 956 241 2144 
Q 241 3472 731 4075 
Q 1159 4600 1884 4600 
Q 2425 4600 2770 4297 
Q 3116 3994 3184 3459 
z
M 888 1484 
Q 888 1194 1011 928 
Q 1134 663 1356 523 
Q 1578 384 1822 384 
Q 2178 384 2434 671 
Q 2691 959 2691 1453 
Q 2691 1928 2437 2201 
Q 2184 2475 1800 2475 
Q 1419 2475 1153 2201 
Q 888 1928 888 1484 
z
" transform="scale(0.015625)"/>
       </defs>
       <use xlink:href="#ArialMT-36"/>
       <use xlink:href="#ArialMT-30" x="55.615234"/>
      </g>
     </g>
    </g>
    <g id="xtick_16">
     <g id="line2d_26">
      <path d="M 937.829304 137.030625 
L 937.829304 12.96 
" clip-path="url(#paebc8cf328)" style="fill: none; stroke: #ffffff; stroke-linecap: round"/>
     </g>
     <g id="text_28">
      <!-- 80 -->
      <g style="fill: #262626" transform="translate(931.712272 154.404219) scale(0.11 -0.11)">
       <defs>
        <path id="ArialMT-38" d="M 1131 2484 
Q 781 2613 612 2850 
Q 444 3088 444 3419 
Q 444 3919 803 4259 
Q 1163 4600 1759 4600 
Q 2359 4600 2725 4251 
Q 3091 3903 3091 3403 
Q 3091 3084 2923 2848 
Q 2756 2613 2416 2484 
Q 2838 2347 3058 2040 
Q 3278 1734 3278 1309 
Q 3278 722 2862 322 
Q 2447 -78 1769 -78 
Q 1091 -78 675 323 
Q 259 725 259 1325 
Q 259 1772 486 2073 
Q 713 2375 1131 2484 
z
M 1019 3438 
Q 1019 3113 1228 2906 
Q 1438 2700 1772 2700 
Q 2097 2700 2305 2904 
Q 2513 3109 2513 3406 
Q 2513 3716 2298 3927 
Q 2084 4138 1766 4138 
Q 1444 4138 1231 3931 
Q 1019 3725 1019 3438 
z
M 838 1322 
Q 838 1081 952 856 
Q 1066 631 1291 507 
Q 1516 384 1775 384 
Q 2178 384 2440 643 
Q 2703 903 2703 1303 
Q 2703 1709 2433 1975 
Q 2163 2241 1756 2241 
Q 1359 2241 1098 1978 
Q 838 1716 838 1322 
z
" transform="scale(0.015625)"/>
       </defs>
       <use xlink:href="#ArialMT-38"/>
       <use xlink:href="#ArialMT-30" x="55.615234"/>
      </g>
     </g>
    </g>
    <g id="text_29">
     <!-- review_count -->
     <g style="fill: #262626" transform="translate(812.224687 169.179844) scale(0.12 -0.12)">
      <defs>
       <path id="ArialMT-76" d="M 1344 0 
L 81 3319 
L 675 3319 
L 1388 1331 
Q 1503 1009 1600 663 
Q 1675 925 1809 1294 
L 2547 3319 
L 3125 3319 
L 1869 0 
L 1344 0 
z
" transform="scale(0.015625)"/>
       <path id="ArialMT-77" d="M 1034 0 
L 19 3319 
L 600 3319 
L 1128 1403 
L 1325 691 
Q 1338 744 1497 1375 
L 2025 3319 
L 2603 3319 
L 3100 1394 
L 3266 759 
L 3456 1400 
L 4025 3319 
L 4572 3319 
L 3534 0 
L 2950 0 
L 2422 1988 
L 2294 2553 
L 1622 0 
L 1034 0 
z
" transform="scale(0.015625)"/>
       <path id="ArialMT-63" d="M 2588 1216 
L 3141 1144 
Q 3050 572 2676 248 
Q 2303 -75 1759 -75 
Q 1078 -75 664 370 
Q 250 816 250 1647 
Q 250 2184 428 2587 
Q 606 2991 970 3192 
Q 1334 3394 1763 3394 
Q 2303 3394 2647 3120 
Q 2991 2847 3088 2344 
L 2541 2259 
Q 2463 2594 2264 2762 
Q 2066 2931 1784 2931 
Q 1359 2931 1093 2626 
Q 828 2322 828 1663 
Q 828 994 1084 691 
Q 1341 388 1753 388 
Q 2084 388 2306 591 
Q 2528 794 2588 1216 
z
" transform="scale(0.015625)"/>
      </defs>
      <use xlink:href="#ArialMT-72"/>
      <use xlink:href="#ArialMT-65" x="33.300781"/>
      <use xlink:href="#ArialMT-76" x="88.916016"/>
      <use xlink:href="#ArialMT-69" x="138.916016"/>
      <use xlink:href="#ArialMT-65" x="161.132812"/>
      <use xlink:href="#ArialMT-77" x="216.748047"/>
      <use xlink:href="#ArialMT-5f" x="288.964844"/>
      <use xlink:href="#ArialMT-63" x="344.580078"/>
      <use xlink:href="#ArialMT-6f" x="394.580078"/>
      <use xlink:href="#ArialMT-75" x="450.195312"/>
      <use xlink:href="#ArialMT-6e" x="505.810547"/>
      <use xlink:href="#ArialMT-74" x="561.425781"/>
     </g>
    </g>
   </g>
   <g id="matplotlib.axis_6">
    <g id="ytick_9">
     <g id="line2d_27">
      <path d="M 707.76 137.030625 
L 987.39 137.030625 
" clip-path="url(#paebc8cf328)" style="fill: none; stroke: #ffffff; stroke-linecap: round"/>
     </g>
     <g id="text_30">
      <!-- 0 -->
      <g style="fill: #262626" transform="translate(692.142969 140.967422) scale(0.11 -0.11)">
       <use xlink:href="#ArialMT-30"/>
      </g>
     </g>
    </g>
    <g id="ytick_10">
     <g id="line2d_28">
      <path d="M 707.76 109.550974 
L 987.39 109.550974 
" clip-path="url(#paebc8cf328)" style="fill: none; stroke: #ffffff; stroke-linecap: round"/>
     </g>
     <g id="text_31">
      <!-- 10 -->
      <g style="fill: #262626" transform="translate(686.025937 113.487771) scale(0.11 -0.11)">
       <use xlink:href="#ArialMT-31"/>
       <use xlink:href="#ArialMT-30" x="55.615234"/>
      </g>
     </g>
    </g>
    <g id="ytick_11">
     <g id="line2d_29">
      <path d="M 707.76 82.071323 
L 987.39 82.071323 
" clip-path="url(#paebc8cf328)" style="fill: none; stroke: #ffffff; stroke-linecap: round"/>
     </g>
     <g id="text_32">
      <!-- 20 -->
      <g style="fill: #262626" transform="translate(686.025937 86.00812) scale(0.11 -0.11)">
       <use xlink:href="#ArialMT-32"/>
       <use xlink:href="#ArialMT-30" x="55.615234"/>
      </g>
     </g>
    </g>
    <g id="ytick_12">
     <g id="line2d_30">
      <path d="M 707.76 54.591672 
L 987.39 54.591672 
" clip-path="url(#paebc8cf328)" style="fill: none; stroke: #ffffff; stroke-linecap: round"/>
     </g>
     <g id="text_33">
      <!-- 30 -->
      <g style="fill: #262626" transform="translate(686.025937 58.528468) scale(0.11 -0.11)">
       <use xlink:href="#ArialMT-33"/>
       <use xlink:href="#ArialMT-30" x="55.615234"/>
      </g>
     </g>
    </g>
    <g id="ytick_13">
     <g id="line2d_31">
      <path d="M 707.76 27.11202 
L 987.39 27.11202 
" clip-path="url(#paebc8cf328)" style="fill: none; stroke: #ffffff; stroke-linecap: round"/>
     </g>
     <g id="text_34">
      <!-- 40 -->
      <g style="fill: #262626" transform="translate(686.025937 31.048817) scale(0.11 -0.11)">
       <use xlink:href="#ArialMT-34"/>
       <use xlink:href="#ArialMT-30" x="55.615234"/>
      </g>
     </g>
    </g>
    <g id="text_35">
     <!-- Count -->
     <g style="fill: #262626" transform="translate(679.640937 91.005) rotate(-90) scale(0.12 -0.12)">
      <use xlink:href="#ArialMT-43"/>
      <use xlink:href="#ArialMT-6f" x="72.216797"/>
      <use xlink:href="#ArialMT-75" x="127.832031"/>
      <use xlink:href="#ArialMT-6e" x="183.447266"/>
      <use xlink:href="#ArialMT-74" x="239.0625"/>
     </g>
    </g>
   </g>
   <g id="patch_50">
    <path d="M 720.470455 137.030625 
L 748.715909 137.030625 
L 748.715909 43.599811 
L 720.470455 43.599811 
z
" clip-path="url(#paebc8cf328)" style="fill: #0173b2; fill-opacity: 0.5; stroke: #ffffff; stroke-linejoin: miter"/>
   </g>
   <g id="patch_51">
    <path d="M 748.715909 137.030625 
L 776.961364 137.030625 
L 776.961364 18.868125 
L 748.715909 18.868125 
z
" clip-path="url(#paebc8cf328)" style="fill: #0173b2; fill-opacity: 0.5; stroke: #ffffff; stroke-linejoin: miter"/>
   </g>
   <g id="patch_52">
    <path d="M 776.961364 137.030625 
L 805.206818 137.030625 
L 805.206818 123.290799 
L 776.961364 123.290799 
z
" clip-path="url(#paebc8cf328)" style="fill: #0173b2; fill-opacity: 0.5; stroke: #ffffff; stroke-linejoin: miter"/>
   </g>
   <g id="patch_53">
    <path d="M 805.206818 137.030625 
L 833.452273 137.030625 
L 833.452273 101.307078 
L 805.206818 101.307078 
z
" clip-path="url(#paebc8cf328)" style="fill: #0173b2; fill-opacity: 0.5; stroke: #ffffff; stroke-linejoin: miter"/>
   </g>
   <g id="patch_54">
    <path d="M 833.452273 137.030625 
L 861.697727 137.030625 
L 861.697727 137.030625 
L 833.452273 137.030625 
z
" clip-path="url(#paebc8cf328)" style="fill: #0173b2; fill-opacity: 0.5; stroke: #ffffff; stroke-linejoin: miter"/>
   </g>
   <g id="patch_55">
    <path d="M 861.697727 137.030625 
L 889.943182 137.030625 
L 889.943182 120.542834 
L 861.697727 120.542834 
z
" clip-path="url(#paebc8cf328)" style="fill: #0173b2; fill-opacity: 0.5; stroke: #ffffff; stroke-linejoin: miter"/>
   </g>
   <g id="patch_56">
    <path d="M 889.943182 137.030625 
L 918.188636 137.030625 
L 918.188636 82.071323 
L 889.943182 82.071323 
z
" clip-path="url(#paebc8cf328)" style="fill: #0173b2; fill-opacity: 0.5; stroke: #ffffff; stroke-linejoin: miter"/>
   </g>
   <g id="patch_57">
    <path d="M 918.188636 137.030625 
L 946.434091 137.030625 
L 946.434091 87.567253 
L 918.188636 87.567253 
z
" clip-path="url(#paebc8cf328)" style="fill: #0173b2; fill-opacity: 0.5; stroke: #ffffff; stroke-linejoin: miter"/>
   </g>
   <g id="patch_58">
    <path d="M 946.434091 137.030625 
L 974.679545 137.030625 
L 974.679545 126.038765 
L 946.434091 126.038765 
z
" clip-path="url(#paebc8cf328)" style="fill: #0173b2; fill-opacity: 0.5; stroke: #ffffff; stroke-linejoin: miter"/>
   </g>
   <g id="line2d_32">
    <path d="M 720.470455 89.097528 
L 726.857618 80.285409 
L 730.689915 75.334538 
L 734.522213 70.821427 
L 737.077079 68.127843 
L 739.631944 65.7328 
L 742.186809 63.671618 
L 744.741674 61.97457 
L 747.29654 60.666017 
L 749.851405 59.763686 
L 752.40627 59.278114 
L 754.961135 59.212293 
L 757.516 59.561531 
L 760.070866 60.31354 
L 762.625731 61.448761 
L 765.180596 62.940913 
L 767.735461 64.757756 
L 770.290327 66.862037 
L 772.845192 69.212596 
L 776.67749 73.10383 
L 781.78722 78.736328 
L 793.284114 91.629146 
L 797.116412 95.591077 
L 800.948709 99.260389 
L 804.781007 102.600868 
L 808.613305 105.598724 
L 812.445603 108.25773 
L 816.277901 110.593372 
L 820.110199 112.626781 
L 823.942497 114.37917 
L 827.774794 115.867385 
L 831.607092 117.100974 
L 835.43939 118.080953 
L 839.271688 118.800249 
L 843.103986 119.245583 
L 846.936284 119.400428 
L 850.768582 119.24861 
L 854.600879 118.778062 
L 858.433177 117.984327 
L 862.265475 116.873438 
L 866.097773 115.463911 
L 869.930071 113.787725 
L 873.762369 111.890216 
L 878.872099 109.116944 
L 891.646425 102.033282 
L 895.478723 100.187493 
L 899.311021 98.604481 
L 903.143319 97.347957 
L 905.698184 96.717841 
L 908.253049 96.268145 
L 910.807915 96.0078 
L 913.36278 95.942553 
L 915.917645 96.07489 
L 918.47251 96.404024 
L 921.027376 96.925976 
L 923.582241 97.633712 
L 926.137106 98.517363 
L 929.969404 100.144875 
L 933.801702 102.088771 
L 937.634 104.289795 
L 942.74373 107.512902 
L 952.963191 114.369107 
L 959.350354 118.532482 
L 964.460085 121.622488 
L 969.569815 124.421527 
L 973.402113 126.30469 
L 974.679545 126.889448 
L 974.679545 126.889448 
" clip-path="url(#paebc8cf328)" style="fill: none; stroke: #0173b2; stroke-width: 1.5; stroke-linecap: round"/>
   </g>
   <g id="patch_59">
    <path d="M 707.76 137.030625 
L 707.76 12.96 
" style="fill: none; stroke: #ffffff; stroke-width: 1.25; stroke-linejoin: miter; stroke-linecap: square"/>
   </g>
   <g id="patch_60">
    <path d="M 987.39 137.030625 
L 987.39 12.96 
" style="fill: none; stroke: #ffffff; stroke-width: 1.25; stroke-linejoin: miter; stroke-linecap: square"/>
   </g>
   <g id="patch_61">
    <path d="M 707.76 137.030625 
L 987.39 137.030625 
" style="fill: none; stroke: #ffffff; stroke-width: 1.25; stroke-linejoin: miter; stroke-linecap: square"/>
   </g>
   <g id="patch_62">
    <path d="M 707.76 12.96 
L 987.39 12.96 
" style="fill: none; stroke: #ffffff; stroke-width: 1.25; stroke-linejoin: miter; stroke-linecap: square"/>
   </g>
  </g>
  <g id="axes_4">
   <g id="patch_63">
    <path d="M 49.5 312.60375 
L 329.13 312.60375 
L 329.13 188.533125 
L 49.5 188.533125 
z
" style="fill: #eaeaf2"/>
   </g>
   <g id="matplotlib.axis_7">
    <g id="xtick_17">
     <g id="line2d_33">
      <path d="M 50.827958 312.60375 
L 50.827958 188.533125 
" clip-path="url(#p984c0170bc)" style="fill: none; stroke: #ffffff; stroke-linecap: round"/>
     </g>
     <g id="text_36">
      <!-- 2.75 -->
      <g style="fill: #262626" transform="translate(40.124442 329.977344) scale(0.11 -0.11)">
       <defs>
        <path id="ArialMT-2e" d="M 581 0 
L 581 641 
L 1222 641 
L 1222 0 
L 581 0 
z
" transform="scale(0.015625)"/>
        <path id="ArialMT-37" d="M 303 3981 
L 303 4522 
L 3269 4522 
L 3269 4084 
Q 2831 3619 2401 2847 
Q 1972 2075 1738 1259 
Q 1569 684 1522 0 
L 944 0 
Q 953 541 1156 1306 
Q 1359 2072 1739 2783 
Q 2119 3494 2547 3981 
L 303 3981 
z
" transform="scale(0.015625)"/>
       </defs>
       <use xlink:href="#ArialMT-32"/>
       <use xlink:href="#ArialMT-2e" x="55.615234"/>
       <use xlink:href="#ArialMT-37" x="83.398438"/>
       <use xlink:href="#ArialMT-35" x="139.013672"/>
      </g>
     </g>
    </g>
    <g id="xtick_18">
     <g id="line2d_34">
      <path d="M 88.769613 312.60375 
L 88.769613 188.533125 
" clip-path="url(#p984c0170bc)" style="fill: none; stroke: #ffffff; stroke-linecap: round"/>
     </g>
     <g id="text_37">
      <!-- 3.00 -->
      <g style="fill: #262626" transform="translate(78.066098 329.977344) scale(0.11 -0.11)">
       <use xlink:href="#ArialMT-33"/>
       <use xlink:href="#ArialMT-2e" x="55.615234"/>
       <use xlink:href="#ArialMT-30" x="83.398438"/>
       <use xlink:href="#ArialMT-30" x="139.013672"/>
      </g>
     </g>
    </g>
    <g id="xtick_19">
     <g id="line2d_35">
      <path d="M 126.711269 312.60375 
L 126.711269 188.533125 
" clip-path="url(#p984c0170bc)" style="fill: none; stroke: #ffffff; stroke-linecap: round"/>
     </g>
     <g id="text_38">
      <!-- 3.25 -->
      <g style="fill: #262626" transform="translate(116.007753 329.977344) scale(0.11 -0.11)">
       <use xlink:href="#ArialMT-33"/>
       <use xlink:href="#ArialMT-2e" x="55.615234"/>
       <use xlink:href="#ArialMT-32" x="83.398438"/>
       <use xlink:href="#ArialMT-35" x="139.013672"/>
      </g>
     </g>
    </g>
    <g id="xtick_20">
     <g id="line2d_36">
      <path d="M 164.652924 312.60375 
L 164.652924 188.533125 
" clip-path="url(#p984c0170bc)" style="fill: none; stroke: #ffffff; stroke-linecap: round"/>
     </g>
     <g id="text_39">
      <!-- 3.50 -->
      <g style="fill: #262626" transform="translate(153.949408 329.977344) scale(0.11 -0.11)">
       <use xlink:href="#ArialMT-33"/>
       <use xlink:href="#ArialMT-2e" x="55.615234"/>
       <use xlink:href="#ArialMT-35" x="83.398438"/>
       <use xlink:href="#ArialMT-30" x="139.013672"/>
      </g>
     </g>
    </g>
    <g id="xtick_21">
     <g id="line2d_37">
      <path d="M 202.594579 312.60375 
L 202.594579 188.533125 
" clip-path="url(#p984c0170bc)" style="fill: none; stroke: #ffffff; stroke-linecap: round"/>
     </g>
     <g id="text_40">
      <!-- 3.75 -->
      <g style="fill: #262626" transform="translate(191.891064 329.977344) scale(0.11 -0.11)">
       <use xlink:href="#ArialMT-33"/>
       <use xlink:href="#ArialMT-2e" x="55.615234"/>
       <use xlink:href="#ArialMT-37" x="83.398438"/>
       <use xlink:href="#ArialMT-35" x="139.013672"/>
      </g>
     </g>
    </g>
    <g id="xtick_22">
     <g id="line2d_38">
      <path d="M 240.536235 312.60375 
L 240.536235 188.533125 
" clip-path="url(#p984c0170bc)" style="fill: none; stroke: #ffffff; stroke-linecap: round"/>
     </g>
     <g id="text_41">
      <!-- 4.00 -->
      <g style="fill: #262626" transform="translate(229.832719 329.977344) scale(0.11 -0.11)">
       <use xlink:href="#ArialMT-34"/>
       <use xlink:href="#ArialMT-2e" x="55.615234"/>
       <use xlink:href="#ArialMT-30" x="83.398438"/>
       <use xlink:href="#ArialMT-30" x="139.013672"/>
      </g>
     </g>
    </g>
    <g id="xtick_23">
     <g id="line2d_39">
      <path d="M 278.47789 312.60375 
L 278.47789 188.533125 
" clip-path="url(#p984c0170bc)" style="fill: none; stroke: #ffffff; stroke-linecap: round"/>
     </g>
     <g id="text_42">
      <!-- 4.25 -->
      <g style="fill: #262626" transform="translate(267.774374 329.977344) scale(0.11 -0.11)">
       <use xlink:href="#ArialMT-34"/>
       <use xlink:href="#ArialMT-2e" x="55.615234"/>
       <use xlink:href="#ArialMT-32" x="83.398438"/>
       <use xlink:href="#ArialMT-35" x="139.013672"/>
      </g>
     </g>
    </g>
    <g id="xtick_24">
     <g id="line2d_40">
      <path d="M 316.419545 312.60375 
L 316.419545 188.533125 
" clip-path="url(#p984c0170bc)" style="fill: none; stroke: #ffffff; stroke-linecap: round"/>
     </g>
     <g id="text_43">
      <!-- 4.50 -->
      <g style="fill: #262626" transform="translate(305.71603 329.977344) scale(0.11 -0.11)">
       <use xlink:href="#ArialMT-34"/>
       <use xlink:href="#ArialMT-2e" x="55.615234"/>
       <use xlink:href="#ArialMT-35" x="83.398438"/>
       <use xlink:href="#ArialMT-30" x="139.013672"/>
      </g>
     </g>
    </g>
    <g id="text_44">
     <!-- rating -->
     <g style="fill: #262626" transform="translate(174.3075 344.752969) scale(0.12 -0.12)">
      <defs>
       <path id="ArialMT-61" d="M 2588 409 
Q 2275 144 1986 34 
Q 1697 -75 1366 -75 
Q 819 -75 525 192 
Q 231 459 231 875 
Q 231 1119 342 1320 
Q 453 1522 633 1644 
Q 813 1766 1038 1828 
Q 1203 1872 1538 1913 
Q 2219 1994 2541 2106 
Q 2544 2222 2544 2253 
Q 2544 2597 2384 2738 
Q 2169 2928 1744 2928 
Q 1347 2928 1158 2789 
Q 969 2650 878 2297 
L 328 2372 
Q 403 2725 575 2942 
Q 747 3159 1072 3276 
Q 1397 3394 1825 3394 
Q 2250 3394 2515 3294 
Q 2781 3194 2906 3042 
Q 3031 2891 3081 2659 
Q 3109 2516 3109 2141 
L 3109 1391 
Q 3109 606 3145 398 
Q 3181 191 3288 0 
L 2700 0 
Q 2613 175 2588 409 
z
M 2541 1666 
Q 2234 1541 1622 1453 
Q 1275 1403 1131 1340 
Q 988 1278 909 1158 
Q 831 1038 831 891 
Q 831 666 1001 516 
Q 1172 366 1500 366 
Q 1825 366 2078 508 
Q 2331 650 2450 897 
Q 2541 1088 2541 1459 
L 2541 1666 
z
" transform="scale(0.015625)"/>
       <path id="ArialMT-67" d="M 319 -275 
L 866 -356 
Q 900 -609 1056 -725 
Q 1266 -881 1628 -881 
Q 2019 -881 2231 -725 
Q 2444 -569 2519 -288 
Q 2563 -116 2559 434 
Q 2191 0 1641 0 
Q 956 0 581 494 
Q 206 988 206 1678 
Q 206 2153 378 2554 
Q 550 2956 876 3175 
Q 1203 3394 1644 3394 
Q 2231 3394 2613 2919 
L 2613 3319 
L 3131 3319 
L 3131 450 
Q 3131 -325 2973 -648 
Q 2816 -972 2473 -1159 
Q 2131 -1347 1631 -1347 
Q 1038 -1347 672 -1080 
Q 306 -813 319 -275 
z
M 784 1719 
Q 784 1066 1043 766 
Q 1303 466 1694 466 
Q 2081 466 2343 764 
Q 2606 1063 2606 1700 
Q 2606 2309 2336 2618 
Q 2066 2928 1684 2928 
Q 1309 2928 1046 2623 
Q 784 2319 784 1719 
z
" transform="scale(0.015625)"/>
      </defs>
      <use xlink:href="#ArialMT-72"/>
      <use xlink:href="#ArialMT-61" x="33.300781"/>
      <use xlink:href="#ArialMT-74" x="88.916016"/>
      <use xlink:href="#ArialMT-69" x="116.699219"/>
      <use xlink:href="#ArialMT-6e" x="138.916016"/>
      <use xlink:href="#ArialMT-67" x="194.53125"/>
     </g>
    </g>
   </g>
   <g id="matplotlib.axis_8">
    <g id="ytick_14">
     <g id="line2d_41">
      <path d="M 49.5 312.60375 
L 329.13 312.60375 
" clip-path="url(#p984c0170bc)" style="fill: none; stroke: #ffffff; stroke-linecap: round"/>
     </g>
     <g id="text_45">
      <!-- 0 -->
      <g style="fill: #262626" transform="translate(33.882969 316.540547) scale(0.11 -0.11)">
       <use xlink:href="#ArialMT-30"/>
      </g>
     </g>
    </g>
    <g id="ytick_15">
     <g id="line2d_42">
      <path d="M 49.5 279.780833 
L 329.13 279.780833 
" clip-path="url(#p984c0170bc)" style="fill: none; stroke: #ffffff; stroke-linecap: round"/>
     </g>
     <g id="text_46">
      <!-- 10 -->
      <g style="fill: #262626" transform="translate(27.765938 283.71763) scale(0.11 -0.11)">
       <use xlink:href="#ArialMT-31"/>
       <use xlink:href="#ArialMT-30" x="55.615234"/>
      </g>
     </g>
    </g>
    <g id="ytick_16">
     <g id="line2d_43">
      <path d="M 49.5 246.957917 
L 329.13 246.957917 
" clip-path="url(#p984c0170bc)" style="fill: none; stroke: #ffffff; stroke-linecap: round"/>
     </g>
     <g id="text_47">
      <!-- 20 -->
      <g style="fill: #262626" transform="translate(27.765938 250.894714) scale(0.11 -0.11)">
       <use xlink:href="#ArialMT-32"/>
       <use xlink:href="#ArialMT-30" x="55.615234"/>
      </g>
     </g>
    </g>
    <g id="ytick_17">
     <g id="line2d_44">
      <path d="M 49.5 214.135 
L 329.13 214.135 
" clip-path="url(#p984c0170bc)" style="fill: none; stroke: #ffffff; stroke-linecap: round"/>
     </g>
     <g id="text_48">
      <!-- 30 -->
      <g style="fill: #262626" transform="translate(27.765938 218.071797) scale(0.11 -0.11)">
       <use xlink:href="#ArialMT-33"/>
       <use xlink:href="#ArialMT-30" x="55.615234"/>
      </g>
     </g>
    </g>
    <g id="text_49">
     <!-- Count -->
     <g style="fill: #262626" transform="translate(21.380938 266.578125) rotate(-90) scale(0.12 -0.12)">
      <use xlink:href="#ArialMT-43"/>
      <use xlink:href="#ArialMT-6f" x="72.216797"/>
      <use xlink:href="#ArialMT-75" x="127.832031"/>
      <use xlink:href="#ArialMT-6e" x="183.447266"/>
      <use xlink:href="#ArialMT-74" x="239.0625"/>
     </g>
    </g>
   </g>
   <g id="patch_64">
    <path d="M 62.210455 312.60375 
L 79.157727 312.60375 
L 79.157727 309.321458 
L 62.210455 309.321458 
z
" clip-path="url(#p984c0170bc)" style="fill: #0173b2; fill-opacity: 0.5; stroke: #ffffff; stroke-linejoin: miter"/>
   </g>
   <g id="patch_65">
    <path d="M 79.157727 312.60375 
L 96.105 312.60375 
L 96.105 312.60375 
L 79.157727 312.60375 
z
" clip-path="url(#p984c0170bc)" style="fill: #0173b2; fill-opacity: 0.5; stroke: #ffffff; stroke-linejoin: miter"/>
   </g>
   <g id="patch_66">
    <path d="M 96.105 312.60375 
L 113.052273 312.60375 
L 113.052273 306.039167 
L 96.105 306.039167 
z
" clip-path="url(#p984c0170bc)" style="fill: #0173b2; fill-opacity: 0.5; stroke: #ffffff; stroke-linejoin: miter"/>
   </g>
   <g id="patch_67">
    <path d="M 113.052273 312.60375 
L 129.999545 312.60375 
L 129.999545 312.60375 
L 113.052273 312.60375 
z
" clip-path="url(#p984c0170bc)" style="fill: #0173b2; fill-opacity: 0.5; stroke: #ffffff; stroke-linejoin: miter"/>
   </g>
   <g id="patch_68">
    <path d="M 129.999545 312.60375 
L 146.946818 312.60375 
L 146.946818 299.474583 
L 129.999545 299.474583 
z
" clip-path="url(#p984c0170bc)" style="fill: #0173b2; fill-opacity: 0.5; stroke: #ffffff; stroke-linejoin: miter"/>
   </g>
   <g id="patch_69">
    <path d="M 146.946818 312.60375 
L 163.894091 312.60375 
L 163.894091 306.039167 
L 146.946818 306.039167 
z
" clip-path="url(#p984c0170bc)" style="fill: #0173b2; fill-opacity: 0.5; stroke: #ffffff; stroke-linejoin: miter"/>
   </g>
   <g id="patch_70">
    <path d="M 163.894091 312.60375 
L 180.841364 312.60375 
L 180.841364 266.651667 
L 163.894091 266.651667 
z
" clip-path="url(#p984c0170bc)" style="fill: #0173b2; fill-opacity: 0.5; stroke: #ffffff; stroke-linejoin: miter"/>
   </g>
   <g id="patch_71">
    <path d="M 180.841364 312.60375 
L 197.788636 312.60375 
L 197.788636 299.474583 
L 180.841364 299.474583 
z
" clip-path="url(#p984c0170bc)" style="fill: #0173b2; fill-opacity: 0.5; stroke: #ffffff; stroke-linejoin: miter"/>
   </g>
   <g id="patch_72">
    <path d="M 197.788636 312.60375 
L 214.735909 312.60375 
L 214.735909 260.087083 
L 197.788636 260.087083 
z
" clip-path="url(#p984c0170bc)" style="fill: #0173b2; fill-opacity: 0.5; stroke: #ffffff; stroke-linejoin: miter"/>
   </g>
   <g id="patch_73">
    <path d="M 214.735909 312.60375 
L 231.683182 312.60375 
L 231.683182 266.651667 
L 214.735909 266.651667 
z
" clip-path="url(#p984c0170bc)" style="fill: #0173b2; fill-opacity: 0.5; stroke: #ffffff; stroke-linejoin: miter"/>
   </g>
   <g id="patch_74">
    <path d="M 231.683182 312.60375 
L 248.630455 312.60375 
L 248.630455 194.44125 
L 231.683182 194.44125 
z
" clip-path="url(#p984c0170bc)" style="fill: #0173b2; fill-opacity: 0.5; stroke: #ffffff; stroke-linejoin: miter"/>
   </g>
   <g id="patch_75">
    <path d="M 248.630455 312.60375 
L 265.577727 312.60375 
L 265.577727 201.005833 
L 248.630455 201.005833 
z
" clip-path="url(#p984c0170bc)" style="fill: #0173b2; fill-opacity: 0.5; stroke: #ffffff; stroke-linejoin: miter"/>
   </g>
   <g id="patch_76">
    <path d="M 265.577727 312.60375 
L 282.525 312.60375 
L 282.525 269.933958 
L 265.577727 269.933958 
z
" clip-path="url(#p984c0170bc)" style="fill: #0173b2; fill-opacity: 0.5; stroke: #ffffff; stroke-linejoin: miter"/>
   </g>
   <g id="patch_77">
    <path d="M 282.525 312.60375 
L 299.472273 312.60375 
L 299.472273 306.039167 
L 282.525 306.039167 
z
" clip-path="url(#p984c0170bc)" style="fill: #0173b2; fill-opacity: 0.5; stroke: #ffffff; stroke-linejoin: miter"/>
   </g>
   <g id="patch_78">
    <path d="M 299.472273 312.60375 
L 316.419545 312.60375 
L 316.419545 309.321458 
L 299.472273 309.321458 
z
" clip-path="url(#p984c0170bc)" style="fill: #0173b2; fill-opacity: 0.5; stroke: #ffffff; stroke-linejoin: miter"/>
   </g>
   <g id="line2d_45">
    <path d="M 62.210455 311.116243 
L 68.597618 311.205939 
L 82.649376 311.538125 
L 87.759107 311.375701 
L 92.868837 310.969718 
L 99.256 310.182436 
L 122.249788 306.836902 
L 127.359518 305.779824 
L 131.191816 304.761174 
L 135.024114 303.525264 
L 138.856412 302.07168 
L 142.688709 300.411411 
L 147.79844 297.910986 
L 154.185603 294.46991 
L 160.572766 291.088981 
L 164.405064 289.366404 
L 166.959929 288.432642 
L 169.514794 287.698589 
L 172.06966 287.164384 
L 175.901958 286.67589 
L 184.843986 285.852853 
L 187.398851 285.331882 
L 189.953716 284.552318 
L 192.508582 283.471308 
L 195.063447 282.068112 
L 197.618312 280.341524 
L 200.173177 278.304294 
L 202.728042 275.975948 
L 205.282908 273.37572 
L 207.837773 270.517097 
L 210.392638 267.405102 
L 212.947503 264.03677 
L 215.502369 260.404651 
L 218.057234 256.502621 
L 221.889532 250.152634 
L 225.72183 243.284882 
L 235.941291 224.445641 
L 238.496156 220.336547 
L 241.051021 216.810052 
L 242.328454 215.322227 
L 243.605886 214.047142 
L 244.883319 213.005096 
L 246.160751 212.214632 
L 247.438184 211.692113 
L 248.715617 211.451335 
L 249.993049 211.503177 
L 251.270482 211.855311 
L 252.547915 212.511974 
L 253.825347 213.473814 
L 255.10278 214.737819 
L 256.380212 216.297326 
L 257.657645 218.142112 
L 258.935078 220.258563 
L 260.21251 222.629921 
L 262.767376 228.056501 
L 265.322241 234.237833 
L 269.154539 244.461906 
L 276.819134 265.648068 
L 279.374 272.222346 
L 281.928865 278.309932 
L 284.48373 283.820004 
L 287.038595 288.699633 
L 289.59346 292.931203 
L 292.148326 296.527755 
L 294.703191 299.526903 
L 297.258056 301.984021 
L 299.812921 303.965438 
L 302.367787 305.542237 
L 304.922652 306.785112 
L 307.477517 307.760461 
L 310.032382 308.527749 
L 313.86468 309.397638 
L 316.419545 309.847963 
L 316.419545 309.847963 
" clip-path="url(#p984c0170bc)" style="fill: none; stroke: #0173b2; stroke-width: 1.5; stroke-linecap: round"/>
   </g>
   <g id="patch_79">
    <path d="M 49.5 312.60375 
L 49.5 188.533125 
" style="fill: none; stroke: #ffffff; stroke-width: 1.25; stroke-linejoin: miter; stroke-linecap: square"/>
   </g>
   <g id="patch_80">
    <path d="M 329.13 312.60375 
L 329.13 188.533125 
" style="fill: none; stroke: #ffffff; stroke-width: 1.25; stroke-linejoin: miter; stroke-linecap: square"/>
   </g>
   <g id="patch_81">
    <path d="M 49.5 312.60375 
L 329.13 312.60375 
" style="fill: none; stroke: #ffffff; stroke-width: 1.25; stroke-linejoin: miter; stroke-linecap: square"/>
   </g>
   <g id="patch_82">
    <path d="M 49.5 188.533125 
L 329.13 188.533125 
" style="fill: none; stroke: #ffffff; stroke-width: 1.25; stroke-linejoin: miter; stroke-linecap: square"/>
   </g>
  </g>
  <g id="axes_5">
   <g id="patch_83">
    <path d="M 378.63 312.60375 
L 658.26 312.60375 
L 658.26 188.533125 
L 378.63 188.533125 
z
" style="fill: #eaeaf2"/>
   </g>
   <g id="matplotlib.axis_9">
    <g id="xtick_25">
     <g id="line2d_46">
      <path d="M 391.340455 312.60375 
L 391.340455 188.533125 
" clip-path="url(#p319ec26074)" style="fill: none; stroke: #ffffff; stroke-linecap: round"/>
     </g>
     <g id="text_50">
      <!-- 0.0 -->
      <g style="fill: #262626" transform="translate(383.695455 329.977344) scale(0.11 -0.11)">
       <use xlink:href="#ArialMT-30"/>
       <use xlink:href="#ArialMT-2e" x="55.615234"/>
       <use xlink:href="#ArialMT-30" x="83.398438"/>
      </g>
     </g>
    </g>
    <g id="xtick_26">
     <g id="line2d_47">
      <path d="M 454.892727 312.60375 
L 454.892727 188.533125 
" clip-path="url(#p319ec26074)" style="fill: none; stroke: #ffffff; stroke-linecap: round"/>
     </g>
     <g id="text_51">
      <!-- 0.5 -->
      <g style="fill: #262626" transform="translate(447.247727 329.977344) scale(0.11 -0.11)">
       <use xlink:href="#ArialMT-30"/>
       <use xlink:href="#ArialMT-2e" x="55.615234"/>
       <use xlink:href="#ArialMT-35" x="83.398438"/>
      </g>
     </g>
    </g>
    <g id="xtick_27">
     <g id="line2d_48">
      <path d="M 518.445 312.60375 
L 518.445 188.533125 
" clip-path="url(#p319ec26074)" style="fill: none; stroke: #ffffff; stroke-linecap: round"/>
     </g>
     <g id="text_52">
      <!-- 1.0 -->
      <g style="fill: #262626" transform="translate(510.8 329.977344) scale(0.11 -0.11)">
       <use xlink:href="#ArialMT-31"/>
       <use xlink:href="#ArialMT-2e" x="55.615234"/>
       <use xlink:href="#ArialMT-30" x="83.398438"/>
      </g>
     </g>
    </g>
    <g id="xtick_28">
     <g id="line2d_49">
      <path d="M 581.997273 312.60375 
L 581.997273 188.533125 
" clip-path="url(#p319ec26074)" style="fill: none; stroke: #ffffff; stroke-linecap: round"/>
     </g>
     <g id="text_53">
      <!-- 1.5 -->
      <g style="fill: #262626" transform="translate(574.352273 329.977344) scale(0.11 -0.11)">
       <use xlink:href="#ArialMT-31"/>
       <use xlink:href="#ArialMT-2e" x="55.615234"/>
       <use xlink:href="#ArialMT-35" x="83.398438"/>
      </g>
     </g>
    </g>
    <g id="xtick_29">
     <g id="line2d_50">
      <path d="M 645.549545 312.60375 
L 645.549545 188.533125 
" clip-path="url(#p319ec26074)" style="fill: none; stroke: #ffffff; stroke-linecap: round"/>
     </g>
     <g id="text_54">
      <!-- 2.0 -->
      <g style="fill: #262626" transform="translate(637.904545 329.977344) scale(0.11 -0.11)">
       <use xlink:href="#ArialMT-32"/>
       <use xlink:href="#ArialMT-2e" x="55.615234"/>
       <use xlink:href="#ArialMT-30" x="83.398438"/>
      </g>
     </g>
    </g>
    <g id="text_55">
     <!-- price -->
     <g style="fill: #262626" transform="translate(505.440937 344.752969) scale(0.12 -0.12)">
      <use xlink:href="#ArialMT-70"/>
      <use xlink:href="#ArialMT-72" x="55.615234"/>
      <use xlink:href="#ArialMT-69" x="88.916016"/>
      <use xlink:href="#ArialMT-63" x="111.132812"/>
      <use xlink:href="#ArialMT-65" x="161.132812"/>
     </g>
    </g>
   </g>
   <g id="matplotlib.axis_10">
    <g id="ytick_18">
     <g id="line2d_51">
      <path d="M 378.63 312.60375 
L 658.26 312.60375 
" clip-path="url(#p319ec26074)" style="fill: none; stroke: #ffffff; stroke-linecap: round"/>
     </g>
     <g id="text_56">
      <!-- 0 -->
      <g style="fill: #262626" transform="translate(363.012969 316.540547) scale(0.11 -0.11)">
       <use xlink:href="#ArialMT-30"/>
      </g>
     </g>
    </g>
    <g id="ytick_19">
     <g id="line2d_52">
      <path d="M 378.63 275.677969 
L 658.26 275.677969 
" clip-path="url(#p319ec26074)" style="fill: none; stroke: #ffffff; stroke-linecap: round"/>
     </g>
     <g id="text_57">
      <!-- 10 -->
      <g style="fill: #262626" transform="translate(356.895937 279.614766) scale(0.11 -0.11)">
       <use xlink:href="#ArialMT-31"/>
       <use xlink:href="#ArialMT-30" x="55.615234"/>
      </g>
     </g>
    </g>
    <g id="ytick_20">
     <g id="line2d_53">
      <path d="M 378.63 238.752188 
L 658.26 238.752188 
" clip-path="url(#p319ec26074)" style="fill: none; stroke: #ffffff; stroke-linecap: round"/>
     </g>
     <g id="text_58">
      <!-- 20 -->
      <g style="fill: #262626" transform="translate(356.895937 242.688984) scale(0.11 -0.11)">
       <use xlink:href="#ArialMT-32"/>
       <use xlink:href="#ArialMT-30" x="55.615234"/>
      </g>
     </g>
    </g>
    <g id="ytick_21">
     <g id="line2d_54">
      <path d="M 378.63 201.826406 
L 658.26 201.826406 
" clip-path="url(#p319ec26074)" style="fill: none; stroke: #ffffff; stroke-linecap: round"/>
     </g>
     <g id="text_59">
      <!-- 30 -->
      <g style="fill: #262626" transform="translate(356.895937 205.763203) scale(0.11 -0.11)">
       <use xlink:href="#ArialMT-33"/>
       <use xlink:href="#ArialMT-30" x="55.615234"/>
      </g>
     </g>
    </g>
    <g id="text_60">
     <!-- Count -->
     <g style="fill: #262626" transform="translate(350.510937 266.578125) rotate(-90) scale(0.12 -0.12)">
      <use xlink:href="#ArialMT-43"/>
      <use xlink:href="#ArialMT-6f" x="72.216797"/>
      <use xlink:href="#ArialMT-75" x="127.832031"/>
      <use xlink:href="#ArialMT-6e" x="183.447266"/>
      <use xlink:href="#ArialMT-74" x="239.0625"/>
     </g>
    </g>
   </g>
   <g id="patch_84">
    <path d="M 391.340455 312.60375 
L 419.585909 312.60375 
L 419.585909 305.218594 
L 391.340455 305.218594 
z
" clip-path="url(#p319ec26074)" style="fill: #0173b2; fill-opacity: 0.5; stroke: #ffffff; stroke-linejoin: miter"/>
   </g>
   <g id="patch_85">
    <path d="M 419.585909 312.60375 
L 447.831364 312.60375 
L 447.831364 275.677969 
L 419.585909 275.677969 
z
" clip-path="url(#p319ec26074)" style="fill: #0173b2; fill-opacity: 0.5; stroke: #ffffff; stroke-linejoin: miter"/>
   </g>
   <g id="patch_86">
    <path d="M 447.831364 312.60375 
L 476.076818 312.60375 
L 476.076818 253.5225 
L 447.831364 253.5225 
z
" clip-path="url(#p319ec26074)" style="fill: #0173b2; fill-opacity: 0.5; stroke: #ffffff; stroke-linejoin: miter"/>
   </g>
   <g id="patch_87">
    <path d="M 476.076818 312.60375 
L 504.322273 312.60375 
L 504.322273 216.596719 
L 476.076818 216.596719 
z
" clip-path="url(#p319ec26074)" style="fill: #0173b2; fill-opacity: 0.5; stroke: #ffffff; stroke-linejoin: miter"/>
   </g>
   <g id="patch_88">
    <path d="M 504.322273 312.60375 
L 532.567727 312.60375 
L 532.567727 194.44125 
L 504.322273 194.44125 
z
" clip-path="url(#p319ec26074)" style="fill: #0173b2; fill-opacity: 0.5; stroke: #ffffff; stroke-linejoin: miter"/>
   </g>
   <g id="patch_89">
    <path d="M 532.567727 312.60375 
L 560.813182 312.60375 
L 560.813182 268.292813 
L 532.567727 268.292813 
z
" clip-path="url(#p319ec26074)" style="fill: #0173b2; fill-opacity: 0.5; stroke: #ffffff; stroke-linejoin: miter"/>
   </g>
   <g id="patch_90">
    <path d="M 560.813182 312.60375 
L 589.058636 312.60375 
L 589.058636 279.370547 
L 560.813182 279.370547 
z
" clip-path="url(#p319ec26074)" style="fill: #0173b2; fill-opacity: 0.5; stroke: #ffffff; stroke-linejoin: miter"/>
   </g>
   <g id="patch_91">
    <path d="M 589.058636 312.60375 
L 617.304091 312.60375 
L 617.304091 235.059609 
L 589.058636 235.059609 
z
" clip-path="url(#p319ec26074)" style="fill: #0173b2; fill-opacity: 0.5; stroke: #ffffff; stroke-linejoin: miter"/>
   </g>
   <g id="patch_92">
    <path d="M 617.304091 312.60375 
L 645.549545 312.60375 
L 645.549545 249.829922 
L 617.304091 249.829922 
z
" clip-path="url(#p319ec26074)" style="fill: #0173b2; fill-opacity: 0.5; stroke: #ffffff; stroke-linejoin: miter"/>
   </g>
   <g id="line2d_55">
    <path d="M 391.340455 305.233528 
L 395.172752 303.979927 
L 399.00505 302.51967 
L 402.837348 300.822549 
L 406.669646 298.865685 
L 410.501944 296.637589 
L 414.334242 294.140731 
L 418.16654 291.391841 
L 423.27627 287.385392 
L 428.386 283.068137 
L 434.773164 277.355983 
L 441.160327 271.371517 
L 447.54749 265.091594 
L 452.65722 259.782402 
L 457.766951 254.153724 
L 462.876681 248.183823 
L 469.263844 240.331123 
L 478.205873 229.245918 
L 482.03817 224.808449 
L 485.870468 220.785721 
L 488.425333 218.417131 
L 490.980199 216.355603 
L 493.535064 214.646087 
L 496.089929 213.32864 
L 498.644794 212.436882 
L 499.922227 212.15905 
L 501.19966 211.996663 
L 502.477092 211.95156 
L 503.754525 212.024973 
L 505.031958 212.217511 
L 506.30939 212.529151 
L 508.864255 213.506444 
L 511.419121 214.943908 
L 513.973986 216.818671 
L 516.528851 219.098517 
L 519.083716 221.742773 
L 521.638582 224.703411 
L 525.470879 229.617938 
L 530.58061 236.737759 
L 538.245206 247.598628 
L 542.077503 252.65361 
L 544.632369 255.752683 
L 547.187234 258.576179 
L 549.742099 261.080137 
L 552.296964 263.227309 
L 554.85183 264.987991 
L 557.406695 266.340795 
L 559.96156 267.273339 
L 562.516425 267.782804 
L 565.071291 267.876313 
L 567.626156 267.571086 
L 570.181021 266.894302 
L 572.735886 265.882662 
L 575.290751 264.581604 
L 577.845617 263.044189 
L 581.677915 260.425803 
L 591.897376 253.169728 
L 594.452241 251.643516 
L 597.007106 250.347825 
L 599.561971 249.328921 
L 602.116836 248.624552 
L 604.671702 248.263228 
L 607.226567 248.263882 
L 609.781432 248.635874 
L 612.336297 249.379337 
L 614.891163 250.485795 
L 617.446028 251.939003 
L 620.000893 253.715954 
L 622.555758 255.787972 
L 625.110624 258.121863 
L 628.942921 262.033047 
L 632.775219 266.3186 
L 639.162382 273.92454 
L 645.549545 281.590495 
L 645.549545 281.590495 
" clip-path="url(#p319ec26074)" style="fill: none; stroke: #0173b2; stroke-width: 1.5; stroke-linecap: round"/>
   </g>
   <g id="patch_93">
    <path d="M 378.63 312.60375 
L 378.63 188.533125 
" style="fill: none; stroke: #ffffff; stroke-width: 1.25; stroke-linejoin: miter; stroke-linecap: square"/>
   </g>
   <g id="patch_94">
    <path d="M 658.26 312.60375 
L 658.26 188.533125 
" style="fill: none; stroke: #ffffff; stroke-width: 1.25; stroke-linejoin: miter; stroke-linecap: square"/>
   </g>
   <g id="patch_95">
    <path d="M 378.63 312.60375 
L 658.26 312.60375 
" style="fill: none; stroke: #ffffff; stroke-width: 1.25; stroke-linejoin: miter; stroke-linecap: square"/>
   </g>
   <g id="patch_96">
    <path d="M 378.63 188.533125 
L 658.26 188.533125 
" style="fill: none; stroke: #ffffff; stroke-width: 1.25; stroke-linejoin: miter; stroke-linecap: square"/>
   </g>
  </g>
  <g id="axes_6">
   <g id="patch_97">
    <path d="M 707.76 312.60375 
L 987.39 312.60375 
L 987.39 188.533125 
L 707.76 188.533125 
z
" style="fill: #eaeaf2"/>
   </g>
   <g id="matplotlib.axis_11">
    <g id="xtick_30">
     <g id="line2d_56">
      <path d="M 707.76 312.60375 
L 707.76 188.533125 
" clip-path="url(#p947df2b399)" style="fill: none; stroke: #ffffff; stroke-linecap: round"/>
     </g>
     <g id="text_61">
      <!-- 0.0 -->
      <g style="fill: #262626" transform="translate(700.115 329.977344) scale(0.11 -0.11)">
       <use xlink:href="#ArialMT-30"/>
       <use xlink:href="#ArialMT-2e" x="55.615234"/>
       <use xlink:href="#ArialMT-30" x="83.398438"/>
      </g>
     </g>
    </g>
    <g id="xtick_31">
     <g id="line2d_57">
      <path d="M 763.686 312.60375 
L 763.686 188.533125 
" clip-path="url(#p947df2b399)" style="fill: none; stroke: #ffffff; stroke-linecap: round"/>
     </g>
     <g id="text_62">
      <!-- 0.2 -->
      <g style="fill: #262626" transform="translate(756.041 329.977344) scale(0.11 -0.11)">
       <use xlink:href="#ArialMT-30"/>
       <use xlink:href="#ArialMT-2e" x="55.615234"/>
       <use xlink:href="#ArialMT-32" x="83.398438"/>
      </g>
     </g>
    </g>
    <g id="xtick_32">
     <g id="line2d_58">
      <path d="M 819.612 312.60375 
L 819.612 188.533125 
" clip-path="url(#p947df2b399)" style="fill: none; stroke: #ffffff; stroke-linecap: round"/>
     </g>
     <g id="text_63">
      <!-- 0.4 -->
      <g style="fill: #262626" transform="translate(811.967 329.977344) scale(0.11 -0.11)">
       <use xlink:href="#ArialMT-30"/>
       <use xlink:href="#ArialMT-2e" x="55.615234"/>
       <use xlink:href="#ArialMT-34" x="83.398438"/>
      </g>
     </g>
    </g>
    <g id="xtick_33">
     <g id="line2d_59">
      <path d="M 875.538 312.60375 
L 875.538 188.533125 
" clip-path="url(#p947df2b399)" style="fill: none; stroke: #ffffff; stroke-linecap: round"/>
     </g>
     <g id="text_64">
      <!-- 0.6 -->
      <g style="fill: #262626" transform="translate(867.893 329.977344) scale(0.11 -0.11)">
       <use xlink:href="#ArialMT-30"/>
       <use xlink:href="#ArialMT-2e" x="55.615234"/>
       <use xlink:href="#ArialMT-36" x="83.398438"/>
      </g>
     </g>
    </g>
    <g id="xtick_34">
     <g id="line2d_60">
      <path d="M 931.464 312.60375 
L 931.464 188.533125 
" clip-path="url(#p947df2b399)" style="fill: none; stroke: #ffffff; stroke-linecap: round"/>
     </g>
     <g id="text_65">
      <!-- 0.8 -->
      <g style="fill: #262626" transform="translate(923.819 329.977344) scale(0.11 -0.11)">
       <use xlink:href="#ArialMT-30"/>
       <use xlink:href="#ArialMT-2e" x="55.615234"/>
       <use xlink:href="#ArialMT-38" x="83.398438"/>
      </g>
     </g>
    </g>
    <g id="xtick_35">
     <g id="line2d_61">
      <path d="M 987.39 312.60375 
L 987.39 188.533125 
" clip-path="url(#p947df2b399)" style="fill: none; stroke: #ffffff; stroke-linecap: round"/>
     </g>
     <g id="text_66">
      <!-- 1.0 -->
      <g style="fill: #262626" transform="translate(979.745 329.977344) scale(0.11 -0.11)">
       <use xlink:href="#ArialMT-31"/>
       <use xlink:href="#ArialMT-2e" x="55.615234"/>
       <use xlink:href="#ArialMT-30" x="83.398438"/>
      </g>
     </g>
    </g>
   </g>
   <g id="matplotlib.axis_12">
    <g id="ytick_22">
     <g id="line2d_62">
      <path d="M 707.76 312.60375 
L 987.39 312.60375 
" clip-path="url(#p947df2b399)" style="fill: none; stroke: #ffffff; stroke-linecap: round"/>
     </g>
     <g id="text_67">
      <!-- 0.0 -->
      <g style="fill: #262626" transform="translate(682.97 316.540547) scale(0.11 -0.11)">
       <use xlink:href="#ArialMT-30"/>
       <use xlink:href="#ArialMT-2e" x="55.615234"/>
       <use xlink:href="#ArialMT-30" x="83.398438"/>
      </g>
     </g>
    </g>
    <g id="ytick_23">
     <g id="line2d_63">
      <path d="M 707.76 287.789625 
L 987.39 287.789625 
" clip-path="url(#p947df2b399)" style="fill: none; stroke: #ffffff; stroke-linecap: round"/>
     </g>
     <g id="text_68">
      <!-- 0.2 -->
      <g style="fill: #262626" transform="translate(682.97 291.726422) scale(0.11 -0.11)">
       <use xlink:href="#ArialMT-30"/>
       <use xlink:href="#ArialMT-2e" x="55.615234"/>
       <use xlink:href="#ArialMT-32" x="83.398438"/>
      </g>
     </g>
    </g>
    <g id="ytick_24">
     <g id="line2d_64">
      <path d="M 707.76 262.9755 
L 987.39 262.9755 
" clip-path="url(#p947df2b399)" style="fill: none; stroke: #ffffff; stroke-linecap: round"/>
     </g>
     <g id="text_69">
      <!-- 0.4 -->
      <g style="fill: #262626" transform="translate(682.97 266.912297) scale(0.11 -0.11)">
       <use xlink:href="#ArialMT-30"/>
       <use xlink:href="#ArialMT-2e" x="55.615234"/>
       <use xlink:href="#ArialMT-34" x="83.398438"/>
      </g>
     </g>
    </g>
    <g id="ytick_25">
     <g id="line2d_65">
      <path d="M 707.76 238.161375 
L 987.39 238.161375 
" clip-path="url(#p947df2b399)" style="fill: none; stroke: #ffffff; stroke-linecap: round"/>
     </g>
     <g id="text_70">
      <!-- 0.6 -->
      <g style="fill: #262626" transform="translate(682.97 242.098172) scale(0.11 -0.11)">
       <use xlink:href="#ArialMT-30"/>
       <use xlink:href="#ArialMT-2e" x="55.615234"/>
       <use xlink:href="#ArialMT-36" x="83.398438"/>
      </g>
     </g>
    </g>
    <g id="ytick_26">
     <g id="line2d_66">
      <path d="M 707.76 213.34725 
L 987.39 213.34725 
" clip-path="url(#p947df2b399)" style="fill: none; stroke: #ffffff; stroke-linecap: round"/>
     </g>
     <g id="text_71">
      <!-- 0.8 -->
      <g style="fill: #262626" transform="translate(682.97 217.284047) scale(0.11 -0.11)">
       <use xlink:href="#ArialMT-30"/>
       <use xlink:href="#ArialMT-2e" x="55.615234"/>
       <use xlink:href="#ArialMT-38" x="83.398438"/>
      </g>
     </g>
    </g>
    <g id="ytick_27">
     <g id="line2d_67">
      <path d="M 707.76 188.533125 
L 987.39 188.533125 
" clip-path="url(#p947df2b399)" style="fill: none; stroke: #ffffff; stroke-linecap: round"/>
     </g>
     <g id="text_72">
      <!-- 1.0 -->
      <g style="fill: #262626" transform="translate(682.97 192.469922) scale(0.11 -0.11)">
       <use xlink:href="#ArialMT-31"/>
       <use xlink:href="#ArialMT-2e" x="55.615234"/>
       <use xlink:href="#ArialMT-30" x="83.398438"/>
      </g>
     </g>
    </g>
   </g>
   <g id="patch_98">
    <path d="M 707.76 312.60375 
L 707.76 188.533125 
" style="fill: none; stroke: #ffffff; stroke-width: 1.25; stroke-linejoin: miter; stroke-linecap: square"/>
   </g>
   <g id="patch_99">
    <path d="M 987.39 312.60375 
L 987.39 188.533125 
" style="fill: none; stroke: #ffffff; stroke-width: 1.25; stroke-linejoin: miter; stroke-linecap: square"/>
   </g>
   <g id="patch_100">
    <path d="M 707.76 312.60375 
L 987.39 312.60375 
" style="fill: none; stroke: #ffffff; stroke-width: 1.25; stroke-linejoin: miter; stroke-linecap: square"/>
   </g>
   <g id="patch_101">
    <path d="M 707.76 188.533125 
L 987.39 188.533125 
" style="fill: none; stroke: #ffffff; stroke-width: 1.25; stroke-linejoin: miter; stroke-linecap: square"/>
   </g>
  </g>
 </g>
 <defs>
  <clipPath id="pcf18fd9b37">
   <rect x="49.5" y="12.96" width="279.63" height="124.070625"/>
  </clipPath>
  <clipPath id="pb7d6cbb01f">
   <rect x="378.63" y="12.96" width="279.63" height="124.070625"/>
  </clipPath>
  <clipPath id="paebc8cf328">
   <rect x="707.76" y="12.96" width="279.63" height="124.070625"/>
  </clipPath>
  <clipPath id="p984c0170bc">
   <rect x="49.5" y="188.533125" width="279.63" height="124.070625"/>
  </clipPath>
  <clipPath id="p319ec26074">
   <rect x="378.63" y="188.533125" width="279.63" height="124.070625"/>
  </clipPath>
  <clipPath id="p947df2b399">
   <rect x="707.76" y="188.533125" width="279.63" height="124.070625"/>
  </clipPath>
 </defs>
</svg>
